<?xml version="1.0" encoding="UTF-8"?>
<svg width="130px" height="91px" viewBox="0 0 130 91" version="1.1" xmlns="http://www.w3.org/2000/svg" xmlns:xlink="http://www.w3.org/1999/xlink">
    <!-- Generator: Sketch 59.1 (86144) - https://sketch.com -->
    <title>twdd-logo</title>
    <desc>Created with Sketch.</desc>
    <defs>
        <polygon id="path-1" points="0 45.3333747 0 0.197566086 129.939193 0.197566086 129.939193 90.4691829 0 90.4691829"></polygon>
    </defs>
    <g id="Page-1" stroke="none" stroke-width="1" fill="none" fill-rule="evenodd">
        <g id="iPhone-11-Copy" transform="translate(-142.000000, -71.000000)">
            <g id="twdd-logo" transform="translate(142.000000, 71.000000)">
                <g id="Group-26">
                    <g id="Fill-24-Clipped">
                        <mask id="mask-2" fill="white">
                            <use xlink:href="#path-1"></use>
                        </mask>
                        <g id="path-1"></g>
                        <path d="M0,56.8720423 C0,40.9535462 12.8720968,27.9359577 29.2164516,27.9359577 C30.6820968,27.9359577 31.5040323,27.9067609 33.298871,27.9192738 C38.48,11.1624132 53.5704841,0.196940442 72.6993549,0.196940442 C91.8366128,0.196940442 107.939839,13.0560322 112.779193,30.555325 C122.889839,35.0557986 129.939193,45.1411971 129.939193,56.8720423 C129.939193,72.5527935 117.350162,85.2971837 101.672581,85.6725708 C99.3829031,88.5901624 95.8288708,90.4691829 91.8219354,90.4691829 C87.8254841,90.4691829 84.277742,88.5985044 81.9880646,85.6913401 L47.3367743,85.6913401 C45.0491934,88.5985044 41.4993548,90.4691829 37.5029032,90.4691829 C33.4917742,90.4691829 29.9272581,88.5818204 27.6417742,85.6600577 C12.2577419,84.9676774 0,72.3463306 0,56.8720423" id="Fill-24" fill="#00A0E1" fill-rule="nonzero" mask="url(#mask-2)"></path>
                    </g>
                </g>
                <path d="M69.1666667,27.0746415 C69.1666667,21.7868091 64.8974802,17.5 59.6308984,17.5 C54.3643167,17.5 50.0951302,21.7868091 50.0951302,27.0746415 C50.0951302,30.7562294 52.1692118,33.9519649 55.2135635,35.5498328 C53.7362495,36.1026992 52.505155,37.1456063 51.8061434,38.5445259 C51.468114,38.4691351 51.1196513,38.4335338 50.7649294,38.4335338 L37.7904419,38.4335338 C34.7773895,38.4335338 32.3381524,41.0805913 32.3381524,44.353812 C32.3381524,47.6270327 34.7773895,50.2761843 37.7904419,50.2761843 L48.5468718,50.2761843 L47.0486923,55.8781455 L40.490504,55.8781455 C37.8905987,55.8781455 35.7184467,57.8508731 35.1717571,60.4937423 L31.1404433,71.6118028 C30.1096622,74.4536201 31.7580773,77.6619208 34.8212081,78.7802187 C37.8864255,79.898517 41.2041217,78.5079738 42.2349028,75.6640625 L45.112326,67.7166073 L53.4649914,67.7166073 C54.8776208,67.7166073 56.1629672,67.1281396 57.1311501,66.1690003 C58.0367351,65.4067147 58.7190537,64.3889378 59.0383039,63.1868722 L64.3904363,43.1454639 C65.0748416,40.5800797 63.9334708,37.9330222 61.7321062,36.4042627 C65.9866864,35.443029 69.1666667,31.6336954 69.1666667,27.0746415" id="Fill-27" fill="#FFFFFF" fill-rule="nonzero"></path>
                <path d="M100.833333,27.0746415 C100.833333,21.7868091 96.5598841,17.5 91.2973649,17.5 C86.0306725,17.5 81.7572233,21.7868091 81.7572233,27.0746415 C81.7572233,30.7562294 83.8355216,33.9519649 86.8778504,35.5498328 C85.0353425,36.2367274 83.5705177,37.6963786 83.0488566,39.6481646 L78.7148945,55.8781455 L72.1565684,55.8781455 C69.5566086,55.8781455 67.3844109,57.8508731 66.8397966,60.4937423 L62.8063113,71.6118028 C61.7775952,74.4536201 63.4239583,77.6619208 66.4871535,78.7802187 C69.5503487,79.898517 72.8702012,78.5079738 73.8968306,75.6640625 L76.7805743,67.7166073 L85.1292416,67.7166073 C86.5460737,67.7166073 87.8314471,67.1281396 88.7996508,66.1690003 C89.7052548,65.4025262 90.385501,64.3889378 90.7047579,63.1868722 L96.0570027,43.1454639 C96.7414224,40.5800797 95.5937672,37.9330222 93.3986167,36.4042627 C97.6532863,35.443029 100.833333,31.6336954 100.833333,27.0746415" id="Fill-29" fill="#FFFFFF" fill-rule="nonzero"></path>
            </g>
        </g>
    </g>
</svg>