<?xml version="1.0" encoding="UTF-8"?>
<svg width="125px" height="33px" viewBox="0 0 125 33" version="1.1" xmlns="http://www.w3.org/2000/svg" xmlns:xlink="http://www.w3.org/1999/xlink">
    <!-- Generator: Sketch 45.2 (43514) - http://www.bohemiancoding.com/sketch -->
    <title>twdd-logo</title>
    <desc>Created with Sketch.</desc>
    <defs>
        <polygon id="path-1" points="0 16.3309635 0 0.522272941 45.2675506 0.522272941 45.2675506 32.1396541 0 32.1396541"></polygon>
    </defs>
    <g id="Page-1" stroke="none" stroke-width="1" fill="none" fill-rule="evenodd">
        <g id="index" transform="translate(-125.000000, -17.000000)">
            <g id="twdd-logo" transform="translate(125.000000, 17.000000)">
                <g id="car">
                    <mask id="mask-2" fill="white">
                        <use xlink:href="#path-1"></use>
                    </mask>
                    <g id="Clip-2"></g>
                    <path d="M0,20.3720778 C0,14.7972707 4.48497322,10.237061 10.178844,10.237061 C10.6894297,10.237061 10.9757667,10.2268346 11.6003029,10.2312173 C13.405249,4.36276866 18.66304,0.522053805 25.3269506,0.522053805 C31.9937829,0.522053805 37.6029213,5.02528832 39.2895342,11.1552387 C42.8125025,12.7315534 45.2675506,16.2640176 45.2675506,20.3720778 C45.2675506,25.8650743 40.8811883,30.328134 35.4210621,30.4596153 C34.6226785,31.4807867 33.3852934,32.1396541 31.9879393,32.1396541 C30.5956984,32.1396541 29.3605047,31.484439 28.5628515,30.4669198 L16.4914072,30.4669198 C15.6944845,31.484439 14.4570994,32.1396541 13.0663194,32.1396541 C11.6675044,32.1396541 10.4271975,31.4785954 9.63027475,30.455963 C4.27095089,30.2134531 0,25.7912987 0,20.3720778" id="Fill-1" fill="#FFFFFF" mask="url(#mask-2)"></path>
                    <path d="M24.1380675,9.77125192 C24.1380675,7.92686147 22.6435633,6.43235736 20.8006338,6.43235736 C18.9562433,6.43235736 17.4617392,7.92686147 17.4617392,9.77125192 C17.4617392,11.055386 18.1892691,12.1700552 19.2528067,12.7288507 C18.7371078,12.9202291 18.3061414,13.2847244 18.0607096,13.7719357 C17.9431069,13.7456394 17.820391,13.7332218 17.6962142,13.7332218 L13.1542658,13.7332218 C12.100224,13.7332218 11.2455956,14.6565127 11.2455956,15.7982086 C11.2455956,16.9391741 12.100224,17.8639259 13.1542658,17.8639259 L16.9204745,17.8639259 L16.3974712,19.8171537 L14.1002007,19.8171537 C13.1900579,19.8171537 12.4289273,20.5067 12.2382794,21.4277996 L10.8277772,25.3057675 C10.4662036,26.2969904 11.0432605,27.4160423 12.1155635,27.8061035 C13.1878665,28.1976256 14.3485542,27.7118753 14.7093974,26.7199219 L15.7181511,23.9478578 L18.6406882,23.9478578 C19.1359344,23.9478578 19.5858927,23.7433314 19.9248222,23.4087845 C20.2425687,23.1421697 20.4814264,22.7864397 20.5931855,22.3671604 L22.4660636,15.3774685 C22.7063822,14.4833956 22.3060947,13.5579134 21.5354682,13.0261445 C23.0255896,12.6901368 24.1380675,11.3621756 24.1380675,9.77125192" id="Fill-4" fill="#00A3DD" mask="url(#mask-2)"></path>
                    <path d="M35.3009759,9.77125192 C35.3009759,7.92686147 33.8050109,6.43235736 31.9628118,6.43235736 C30.1191518,6.43235736 28.6239172,7.92686147 28.6239172,9.77125192 C28.6239172,11.055386 29.3507166,12.1700552 30.4157152,12.7288507 C29.7707263,12.9677084 29.2579493,13.4761028 29.0760668,14.1568837 L27.5589187,19.8171537 L25.2623787,19.8171537 C24.3529663,19.8171537 23.5918357,20.5067 23.4004574,21.4277996 L21.9892247,25.3057675 C21.6291121,26.2969904 22.2061689,27.4160423 23.2777415,27.8061035 C24.3500445,28.1976256 25.5114627,27.7118753 25.8730362,26.7199219 L26.8810595,23.9478578 L29.8043271,23.9478578 C30.2995733,23.9478578 30.7495316,23.7433314 31.0884611,23.4080541 C31.4054772,23.1407087 31.6436044,22.7864397 31.756094,22.3671604 L33.6297025,15.3774685 C33.8685602,14.4833956 33.4675422,13.5579134 32.6983766,13.0261445 C34.1877676,12.6901368 35.3009759,11.3621756 35.3009759,9.77125192" id="Fill-6" fill="#A0A0A0" mask="url(#mask-2)"></path>
                </g>
                <g id="twdd" transform="translate(46.000000, 6.000000)" fill="#FFFFFF">
                    <path d="M1.6976996,2.14598802 C1.47561377,2.14598802 1.28426647,2.06606786 1.12365768,1.90545908 C0.964585828,1.74561876 0.883128743,1.55427146 0.883128743,1.33141717 C0.883128743,1.10164671 0.964585828,0.905688623 1.12365768,0.74507984 C1.28426647,0.584471058 1.47561377,0.503782435 1.6976996,0.503782435 L15.933478,0.503782435 C16.1647854,0.503782435 16.359975,0.584471058 16.5205838,0.74507984 C16.6796557,0.905688623 16.7603443,1.10164671 16.7603443,1.33141717 C16.7603443,1.55427146 16.6796557,1.74561876 16.5205838,1.90545908 C16.359975,2.06606786 16.1647854,2.14598802 15.933478,2.14598802 L9.63592315,2.14598802 L9.63592315,21.0232834 C9.63592315,21.2545908 9.55753992,21.4513174 9.40154192,21.6111577 C9.24708084,21.770998 9.05265968,21.8509182 8.82212076,21.8509182 C8.59081337,21.8509182 8.39485529,21.770998 8.23424651,21.6111577 C8.07440619,21.4513174 7.99448603,21.2545908 7.99448603,21.0232834 L7.99448603,2.14598802 L1.6976996,2.14598802 Z" id="Fill-8"></path>
                    <path d="M30.1687954,0.731401198 C30.3363204,0.580013972 30.5299731,0.503936128 30.7413004,0.503936128 C30.9733762,0.503936128 31.1685659,0.580013972 31.3291747,0.731401198 C31.4175479,0.829764471 31.4859411,0.936580838 31.5297435,1.0518503 L36.2258214,17.9419002 L40.9088353,1.0518503 C40.9518693,0.927359281 41.0233363,0.815932136 41.1216996,0.718337325 C41.2723184,0.575403194 41.4636657,0.503936128 41.6949731,0.503936128 C41.9270489,0.503936128 42.1199331,0.58462475 42.2759311,0.745233533 C42.4319291,0.905842315 42.5095439,1.10103194 42.5095439,1.33157086 C42.5095439,1.44837725 42.48649,1.58055289 42.4426876,1.73194012 L37.0788154,21.1317904 C37.025023,21.32698 36.9374182,21.4868204 36.8129271,21.6113114 C36.6354122,21.7711517 36.4386856,21.8503034 36.2258214,21.8503034 C35.9937455,21.8503034 35.7985559,21.7711517 35.6387156,21.6113114 C35.5134561,21.4768303 35.4250828,21.3231377 35.3720589,21.1433174 L30.7413004,4.44000399 L26.138975,21.1317904 C26.0767295,21.31699 25.984514,21.4768303 25.8592545,21.6113114 C25.6901926,21.7711517 25.495003,21.8503034 25.2721487,21.8503034 C25.0492944,21.8503034 24.8587156,21.7711517 24.6988752,21.6113114 C24.5651627,21.4768303 24.4729471,21.3231377 24.4183862,21.1433174 L19.0414501,1.73194012 C18.9968792,1.58055289 18.9753623,1.44837725 18.9753623,1.33157086 C18.9753623,1.10103194 19.0560509,0.905842315 19.2151228,0.745233533 C19.3757315,0.58462475 19.5709212,0.503936128 19.8014601,0.503936128 C20.0327675,0.503936128 20.2271886,0.580013972 20.3893343,0.731401198 C20.4777076,0.829764471 20.5407216,0.936580838 20.5760709,1.0518503 L25.2721487,17.9419002 L29.9674581,1.03801796 C29.9951228,0.941191617 30.0604421,0.838217565 30.1687954,0.731401198" id="Fill-10"></path>
                    <path d="M49.8336118,20.2108643 C52.3065259,20.2108643 54.4320948,19.3294371 56.2110868,17.5688882 C57.9816257,15.7983493 58.8653583,13.6681697 58.8653583,11.1783493 C58.8653583,8.69621357 57.9816257,6.57064471 56.2110868,4.80010579 C54.4236417,3.03110379 52.2965359,2.14583433 49.8336118,2.14583433 L46.271017,2.14583433 L46.271017,20.2108643 L49.8336118,20.2108643 Z M49.8336118,0.503628743 C52.7783623,0.503628743 55.2912365,1.55104391 57.3722345,3.63972655 C59.4616856,5.72149301 60.5083323,8.23436727 60.5083323,11.1783493 C60.5083323,14.1215629 59.4616856,16.6390479 57.3722345,18.728499 C55.2912365,20.809497 52.7783623,21.8507645 49.8336118,21.8507645 L45.4449192,21.8507645 C45.2220649,21.8507645 45.0307176,21.7708443 44.8708772,21.611004 C44.7110369,21.4511637 44.6311168,21.2544371 44.6311168,21.0238982 L44.6311168,1.33203194 C44.6311168,1.10149301 44.7110369,0.90553493 44.8708772,0.744926148 C45.0307176,0.584317365 45.2220649,0.503628743 45.4449192,0.503628743 L49.8336118,0.503628743 Z" id="Fill-12"></path>
                    <path d="M67.978024,20.2108643 C70.4517066,20.2108643 72.5757385,19.3294371 74.355499,17.5688882 C76.1252695,15.7983493 77.0105389,13.6681697 77.0105389,11.1783493 C77.0105389,8.69621357 76.1252695,6.57064471 74.355499,4.80010579 C72.566517,3.03110379 70.4401796,2.14583433 67.978024,2.14583433 L64.4161976,2.14583433 L64.4161976,20.2108643 L67.978024,20.2108643 Z M67.978024,0.503628743 C70.922006,0.503628743 73.4348802,1.55104391 75.5174152,3.63972655 C77.6053293,5.72149301 78.6504391,8.23436727 78.6504391,11.1783493 C78.6504391,14.1215629 77.6053293,16.6390479 75.5174152,18.728499 C73.4348802,20.809497 70.922006,21.8507645 67.978024,21.8507645 L63.5877944,21.8507645 C63.3649401,21.8507645 63.1751297,21.7708443 63.0152894,21.611004 C62.8546806,21.4511637 62.7747605,21.2544371 62.7747605,21.0238982 L62.7747605,1.33203194 C62.7747605,1.10149301 62.8546806,0.90553493 63.0152894,0.744926148 C63.1751297,0.584317365 63.3649401,0.503628743 63.5877944,0.503628743 L67.978024,0.503628743 Z" id="Fill-14"></path>
                </g>
            </g>
        </g>
    </g>
</svg>