<?xml version="1.0" encoding="UTF-8"?>
<svg width="167px" height="44px" viewBox="0 0 167 44" version="1.1" xmlns="http://www.w3.org/2000/svg" xmlns:xlink="http://www.w3.org/1999/xlink">
    <!-- Generator: Sketch 48.2 (47327) - http://www.bohemiancoding.com/sketch -->
    <title>twdd</title>
    <desc>Created with Sketch.</desc>
    <defs>
        <polygon id="path-1" points="0 0.715 61.972 0.715 61.972 43.9997 0 43.9997"></polygon>
    </defs>
    <g id="index-copy" stroke="none" stroke-width="1" fill="none" fill-rule="evenodd" transform="translate(-111.000000, -815.000000)">
        <g id="twdd" transform="translate(111.000000, 814.000000)">
            <g id="Group-3" transform="translate(0.000000, 0.285100)">
                <mask id="mask-2" fill="white">
                    <use xlink:href="#path-1"></use>
                </mask>
                <g id="Clip-2"></g>
                <path d="M0,27.8897 C0,20.2577 6.14,14.0147 13.935,14.0147 C14.634,14.0147 15.026,14.0007 15.881,14.0067 C18.352,5.9727 25.551,0.7147 34.674,0.7147 C43.8,0.7147 51.479,6.8797 53.787,15.2717 C58.61,17.4297 61.972,22.2657 61.972,27.8897 C61.972,35.4097 55.967,41.5197 48.491,41.6997 C47.399,43.0977 45.704,43.9997 43.793,43.9997 C41.887,43.9997 40.194,43.1027 39.104,41.7097 L22.577,41.7097 C21.485,43.1027 19.793,43.9997 17.888,43.9997 C15.973,43.9997 14.274,43.0947 13.184,41.6947 C5.847,41.3627 0,35.3087 0,27.8897" id="Fill-1" fill="#00A0E1" mask="url(#mask-2)"></path>
            </g>
            <path d="M33.0449,13.6621 C33.0449,11.1371 30.9989,9.0911 28.4759,9.0911 C25.9509,9.0911 23.9049,11.1371 23.9049,13.6621 C23.9049,15.4201 24.9009,16.9461 26.3579,17.7111 C25.6509,17.9731 25.0619,18.4721 24.7259,19.1391 C24.5649,19.1031 24.3969,19.0861 24.2269,19.0861 L18.0079,19.0861 C16.5659,19.0861 15.3949,20.3501 15.3949,21.9131 C15.3949,23.4751 16.5659,24.7411 18.0079,24.7411 L23.1639,24.7411 L22.4479,27.4151 L19.3039,27.4151 C18.0579,27.4151 17.0159,28.3591 16.7539,29.6201 L14.8229,34.9291 C14.3279,36.2861 15.1179,37.8181 16.5859,38.3521 C18.0549,38.8881 19.6439,38.2231 20.1379,36.8651 L21.5179,33.0701 L25.5199,33.0701 C26.1969,33.0701 26.8139,32.7901 27.2769,32.3321 C27.7119,31.9671 28.0399,31.4801 28.1919,30.9061 L30.7559,21.3371 C31.0849,20.1131 30.5369,18.8461 29.4819,18.1181 C31.5229,17.6581 33.0449,15.8401 33.0449,13.6621" id="Fill-4" fill="#FFFFFF"></path>
            <path d="M48.3271,13.6621 C48.3271,11.1371 46.2801,9.0911 43.7571,9.0911 C41.2331,9.0911 39.1871,11.1371 39.1871,13.6621 C39.1871,15.4201 40.1821,16.9461 41.6401,17.7111 C40.7561,18.0381 40.0551,18.7341 39.8051,19.6661 L37.7281,27.4151 L34.5841,27.4151 C33.3401,27.4151 32.2971,28.3591 32.0361,29.6201 L30.1031,34.9291 C29.6111,36.2861 30.4011,37.8181 31.8671,38.3521 C33.3351,38.8881 34.9261,38.2231 35.4211,36.8651 L36.8001,33.0701 L40.8031,33.0701 C41.4801,33.0701 42.0971,32.7901 42.5601,32.3311 C42.9941,31.9651 43.3201,31.4801 43.4741,30.9061 L46.0391,21.3371 C46.3671,20.1131 45.8181,18.8461 44.7641,18.1181 C46.8031,17.6581 48.3271,15.8401 48.3271,13.6621" id="Fill-6" fill="#FFFFFF"></path>
            <path d="M66.623,15.914 C66.334,15.914 66.085,15.81 65.876,15.601 C65.669,15.393 65.563,15.144 65.563,14.854 C65.563,14.555 65.669,14.3 65.876,14.091 C66.085,13.882 66.334,13.777 66.623,13.777 L85.147,13.777 C85.448,13.777 85.703,13.882 85.911,14.091 C86.118,14.3 86.224,14.555 86.224,14.854 C86.224,15.144 86.118,15.393 85.911,15.601 C85.703,15.81 85.448,15.914 85.147,15.914 L76.953,15.914 L76.953,40.479 C76.953,40.78 76.851,41.036 76.648,41.244 C76.447,41.452 76.194,41.556 75.894,41.556 C75.593,41.556 75.338,41.452 75.129,41.244 C74.921,41.036 74.817,40.78 74.817,40.479 L74.817,15.914 L66.623,15.914 Z" id="Fill-8" fill="#00A3DD"></path>
            <path d="M103.6719,14.0732 C103.8909,13.8762 104.1419,13.7772 104.4169,13.7772 C104.7189,13.7772 104.9729,13.8762 105.1819,14.0732 C105.2969,14.2012 105.3859,14.3402 105.4429,14.4902 L111.5539,36.4692 L117.6479,14.4902 C117.7039,14.3282 117.7969,14.1832 117.9249,14.0562 C118.1209,13.8702 118.3699,13.7772 118.6709,13.7772 C118.9729,13.7772 119.2239,13.8822 119.4269,14.0912 C119.6299,14.3002 119.7309,14.5542 119.7309,14.8542 C119.7309,15.0062 119.7009,15.1782 119.6439,15.3752 L112.6639,40.6202 C112.5949,40.8742 112.4799,41.0822 112.3179,41.2442 C112.0869,41.4522 111.8309,41.5552 111.5539,41.5552 C111.2529,41.5552 110.9979,41.4522 110.7899,41.2442 C110.6269,41.0692 110.5119,40.8692 110.4429,40.6352 L104.4169,18.8992 L98.4279,40.6202 C98.3469,40.8612 98.2269,41.0692 98.0639,41.2442 C97.8439,41.4522 97.5899,41.5552 97.2999,41.5552 C97.0099,41.5552 96.7619,41.4522 96.5539,41.2442 C96.3799,41.0692 96.2599,40.8692 96.1889,40.6352 L89.1919,15.3752 C89.1339,15.1782 89.1059,15.0062 89.1059,14.8542 C89.1059,14.5542 89.2109,14.3002 89.4179,14.0912 C89.6269,13.8822 89.8809,13.7772 90.1809,13.7772 C90.4829,13.7772 90.7359,13.8762 90.9459,14.0732 C91.0609,14.2012 91.1429,14.3402 91.1889,14.4902 L97.2999,36.4692 L103.4099,14.4722 C103.4459,14.3462 103.5319,14.2122 103.6719,14.0732" id="Fill-10" fill="#00A3DD"></path>
            <path d="M129.2617,39.4218 C132.4797,39.4218 135.2457,38.2748 137.5617,35.9838 C139.8647,33.6798 141.0157,30.9078 141.0157,27.6678 C141.0157,24.4378 139.8647,21.6718 137.5617,19.3678 C135.2347,17.0658 132.4667,15.9138 129.2617,15.9138 L124.6257,15.9138 L124.6257,39.4218 L129.2617,39.4218 Z M129.2617,13.7768 C133.0937,13.7768 136.3637,15.1398 139.0717,17.8578 C141.7907,20.5668 143.1527,23.8368 143.1527,27.6678 C143.1527,31.4978 141.7907,34.7738 139.0717,37.4928 C136.3637,40.2008 133.0937,41.5558 129.2617,41.5558 L123.5507,41.5558 C123.2607,41.5558 123.0117,41.4518 122.8037,41.2438 C122.5957,41.0358 122.4917,40.7798 122.4917,40.4798 L122.4917,14.8548 C122.4917,14.5548 122.5957,14.2998 122.8037,14.0908 C123.0117,13.8818 123.2607,13.7768 123.5507,13.7768 L129.2617,13.7768 Z" id="Fill-12" fill="#00A3DD"></path>
            <path d="M152.873,39.4218 C156.092,39.4218 158.856,38.2748 161.172,35.9838 C163.475,33.6798 164.628,30.9078 164.628,27.6678 C164.628,24.4378 163.475,21.6718 161.172,19.3678 C158.845,17.0658 156.078,15.9138 152.873,15.9138 L148.238,15.9138 L148.238,39.4218 L152.873,39.4218 Z M152.873,13.7768 C156.704,13.7768 159.974,15.1398 162.684,17.8578 C165.401,20.5668 166.762,23.8368 166.762,27.6678 C166.762,31.4978 165.401,34.7738 162.684,37.4928 C159.974,40.2008 156.704,41.5558 152.873,41.5558 L147.16,41.5558 C146.87,41.5558 146.624,41.4518 146.415,41.2438 C146.207,41.0358 146.102,40.7798 146.102,40.4798 L146.102,14.8548 C146.102,14.5548 146.207,14.2998 146.415,14.0908 C146.624,13.8818 146.87,13.7768 147.16,13.7768 L152.873,13.7768 Z" id="Fill-14" fill="#00A3DD"></path>
            <path d="M85.6084,4.9902 C85.5594,4.9902 85.5154,4.9742 85.4814,4.9362 C85.4454,4.9022 85.4264,4.8582 85.4264,4.8102 C85.4264,4.7592 85.4454,4.7152 85.4814,4.6792 C85.5154,4.6432 85.5594,4.6272 85.6084,4.6272 L88.7724,4.6272 C88.8254,4.6272 88.8654,4.6432 88.9024,4.6792 C88.9384,4.7152 88.9554,4.7592 88.9554,4.8102 C88.9554,4.8582 88.9384,4.9022 88.9024,4.9362 C88.8654,4.9742 88.8254,4.9902 88.7724,4.9902 L87.3744,4.9902 L87.3744,9.1862 C87.3744,9.2382 87.3554,9.2812 87.3204,9.3172 C87.2874,9.3532 87.2424,9.3702 87.1914,9.3702 C87.1394,9.3702 87.0974,9.3532 87.0604,9.3172 C87.0254,9.2812 87.0074,9.2382 87.0074,9.1862 L87.0074,4.9902 L85.6084,4.9902 Z" id="Fill-16" fill="#00A3DD"></path>
            <path d="M89.9375,6.4179 C89.5825,6.4179 89.2775,6.5439 89.0245,6.7979 C88.7725,7.0509 88.6455,7.3549 88.6455,7.7089 C88.6455,8.0659 88.7725,8.3699 89.0245,8.6229 C89.2775,8.8759 89.5825,9.0009 89.9375,9.0009 C90.2925,9.0009 90.5975,8.8759 90.8515,8.6229 C91.1025,8.3719 91.2275,8.0669 91.2275,7.7089 C91.2275,7.3529 91.1025,7.0489 90.8515,6.7979 C90.5975,6.5439 90.2925,6.4179 89.9375,6.4179 Z M91.2275,8.7699 C90.8275,9.1699 90.3985,9.3699 89.9375,9.3699 C89.4785,9.3699 89.0875,9.2089 88.7635,8.8839 C88.4395,8.5609 88.2775,8.1679 88.2775,7.7089 C88.2775,7.2519 88.4395,6.8589 88.7635,6.5359 C89.0875,6.2119 89.4785,6.0499 89.9375,6.0499 C90.3975,6.0499 90.7885,6.2119 91.1105,6.5359 C91.4365,6.8589 91.5975,7.2519 91.5975,7.7089 L91.5975,9.1869 C91.5975,9.2379 91.5815,9.2809 91.5445,9.3169 C91.5095,9.3539 91.4645,9.3699 91.4145,9.3699 C91.3625,9.3699 91.3195,9.3539 91.2815,9.3169 C91.2475,9.2809 91.2275,9.2379 91.2275,9.1869 L91.2275,8.7699 Z" id="Fill-18" fill="#00A3DD"></path>
            <path d="M92.3398,6.2334 C92.3398,6.1814 92.3568,6.1384 92.3938,6.1024 C92.4278,6.0674 92.4728,6.0494 92.5238,6.0494 C92.5758,6.0494 92.6178,6.0674 92.6538,6.1024 C92.6918,6.1384 92.7098,6.1814 92.7098,6.2334 L92.7098,9.1864 C92.7098,9.2384 92.6918,9.2814 92.6538,9.3174 C92.6178,9.3534 92.5758,9.3704 92.5238,9.3704 C92.4728,9.3704 92.4278,9.3534 92.3938,9.3174 C92.3568,9.2814 92.3398,9.2384 92.3398,9.1864 L92.3398,6.2334 Z M92.7708,5.2504 C92.7708,5.3174 92.7448,5.3774 92.6978,5.4234 C92.6508,5.4714 92.5938,5.4954 92.5238,5.4954 C92.4558,5.4954 92.3988,5.4714 92.3498,5.4234 C92.3018,5.3774 92.2778,5.3174 92.2778,5.2504 C92.2778,5.1824 92.3018,5.1234 92.3498,5.0764 C92.3988,5.0284 92.4558,5.0034 92.5238,5.0034 C92.5938,5.0034 92.6508,5.0284 92.6978,5.0764 C92.7448,5.1234 92.7708,5.1824 92.7708,5.2504 Z" id="Fill-20" fill="#00A3DD"></path>
            <path d="M95.5117,6.1005 C95.5477,6.0665 95.5907,6.0495 95.6397,6.0495 C95.6907,6.0495 95.7337,6.0665 95.7667,6.1005 C95.7917,6.1235 95.8097,6.1535 95.8217,6.1925 L96.6237,8.6015 L97.4377,6.1565 C97.4457,6.1365 97.4557,6.1185 97.4717,6.1025 C97.5087,6.0675 97.5537,6.0495 97.6087,6.0495 C97.6597,6.0495 97.7037,6.0675 97.7397,6.1025 C97.7747,6.1385 97.7937,6.1815 97.7937,6.2335 C97.7937,6.2565 97.7867,6.2835 97.7787,6.3105 L96.7947,9.2545 C96.7877,9.2795 96.7737,9.3015 96.7517,9.3235 C96.7207,9.3555 96.6777,9.3705 96.6237,9.3705 C96.5717,9.3705 96.5287,9.3545 96.4927,9.3205 C96.4767,9.3025 96.4627,9.2805 96.4517,9.2545 L95.6397,6.8175 L94.8267,9.2545 C94.8197,9.2795 94.8067,9.2985 94.7877,9.3175 C94.7537,9.3535 94.7087,9.3705 94.6547,9.3705 C94.6017,9.3705 94.5567,9.3545 94.5257,9.3205 C94.5067,9.3025 94.4927,9.2805 94.4837,9.2545 L93.5017,6.3105 C93.4907,6.2805 93.4877,6.2555 93.4877,6.2335 C93.4877,6.1815 93.5037,6.1385 93.5417,6.1025 C93.5757,6.0675 93.6197,6.0495 93.6707,6.0495 C93.7227,6.0495 93.7667,6.0675 93.8047,6.1025 C93.8187,6.1165 93.8307,6.1365 93.8387,6.1605 L94.6547,8.6015 L95.4587,6.1925 C95.4737,6.1525 95.4907,6.1225 95.5117,6.1005" id="Fill-22" fill="#00A3DD"></path>
            <path d="M99.9014,6.4179 C99.5454,6.4179 99.2404,6.5439 98.9874,6.7979 C98.7344,7.0509 98.6074,7.3549 98.6074,7.7089 C98.6074,8.0659 98.7344,8.3699 98.9874,8.6229 C99.2404,8.8759 99.5454,9.0009 99.9014,9.0009 C100.2554,9.0009 100.5604,8.8759 100.8134,8.6229 C101.0654,8.3719 101.1904,8.0669 101.1904,7.7089 C101.1904,7.3529 101.0654,7.0489 100.8134,6.7979 C100.5604,6.5439 100.2554,6.4179 99.9014,6.4179 Z M101.1904,8.7699 C100.7914,9.1699 100.3614,9.3699 99.9014,9.3699 C99.4424,9.3699 99.0504,9.2089 98.7264,8.8839 C98.4024,8.5609 98.2394,8.1679 98.2394,7.7089 C98.2394,7.2519 98.4024,6.8589 98.7264,6.5359 C99.0504,6.2119 99.4424,6.0499 99.9014,6.0499 C100.3594,6.0499 100.7524,6.2119 101.0744,6.5359 C101.3994,6.8589 101.5604,7.2519 101.5604,7.7089 L101.5604,9.1869 C101.5604,9.2379 101.5444,9.2809 101.5074,9.3169 C101.4724,9.3539 101.4294,9.3699 101.3774,9.3699 C101.3254,9.3699 101.2824,9.3539 101.2464,9.3169 C101.2094,9.2809 101.1904,9.2379 101.1904,9.1869 L101.1904,8.7699 Z" id="Fill-24" fill="#00A3DD"></path>
            <path d="M102.0381,6.2334 C102.0381,6.1814 102.0571,6.1384 102.0921,6.1024 C102.1271,6.0674 102.1711,6.0494 102.2231,6.0494 C102.2731,6.0494 102.3181,6.0674 102.3521,6.1024 C102.3901,6.1384 102.4061,6.1814 102.4061,6.2334 L102.4061,6.5764 C102.7691,6.2254 103.1601,6.0494 103.5741,6.0494 C104.0021,6.0494 104.3631,6.1994 104.6601,6.5004 C104.9631,6.8014 105.1131,7.1634 105.1131,7.5884 L105.1131,9.1864 C105.1131,9.2384 105.0941,9.2814 105.0591,9.3174 C105.0221,9.3534 104.9771,9.3704 104.9271,9.3704 C104.8751,9.3704 104.8311,9.3534 104.7961,9.3174 C104.7621,9.2814 104.7431,9.2384 104.7431,9.1864 L104.7431,7.5884 C104.7431,7.2624 104.6301,6.9894 104.3991,6.7634 C104.1701,6.5334 103.8951,6.4184 103.5741,6.4184 C103.2531,6.4184 102.9781,6.5334 102.7471,6.7634 C102.5191,6.9894 102.4061,7.2644 102.4061,7.5884 L102.4061,9.1864 C102.4061,9.2384 102.3901,9.2814 102.3521,9.3174 C102.3181,9.3534 102.2731,9.3704 102.2231,9.3704 C102.1711,9.3704 102.1271,9.3534 102.0921,9.3174 C102.0571,9.2814 102.0381,9.2384 102.0381,9.1864 L102.0381,6.2334 Z" id="Fill-26" fill="#00A3DD"></path>
            <path d="M108.5303,9.0058 C109.0793,9.0058 109.5513,8.8108 109.9473,8.4188 C110.3403,8.0268 110.5373,7.5528 110.5373,6.9988 C110.5373,6.4468 110.3403,5.9758 109.9473,5.5808 C109.5503,5.1888 109.0773,4.9898 108.5303,4.9898 L107.7383,4.9898 L107.7383,9.0058 L108.5303,9.0058 Z M108.5303,4.6268 C109.1833,4.6268 109.7433,4.8578 110.2043,5.3228 C110.6693,5.7848 110.9023,6.3448 110.9023,6.9988 C110.9023,7.6518 110.6693,8.2128 110.2043,8.6768 C109.7433,9.1398 109.1833,9.3698 108.5303,9.3698 L107.5523,9.3698 C107.5063,9.3698 107.4613,9.3538 107.4263,9.3178 C107.3893,9.2808 107.3733,9.2378 107.3733,9.1868 L107.3733,4.8108 C107.3733,4.7588 107.3893,4.7148 107.4263,4.6798 C107.4613,4.6438 107.5063,4.6268 107.5523,4.6268 L108.5303,4.6268 Z" id="Fill-28" fill="#00A3DD"></path>
            <path d="M114.3506,7.5263 C114.2946,7.2313 114.1706,6.9893 113.9806,6.7973 C113.7256,6.5443 113.4216,6.4183 113.0666,6.4183 C112.7106,6.4183 112.4066,6.5443 112.1536,6.7973 C111.9636,6.9863 111.8376,7.2293 111.7796,7.5263 L114.3506,7.5263 Z M114.0126,8.6563 C114.0646,8.6563 114.1056,8.6743 114.1426,8.7113 C114.1776,8.7473 114.1966,8.7913 114.1966,8.8423 C114.1966,8.8943 114.1806,8.9353 114.1486,8.9703 C113.8396,9.2383 113.4786,9.3703 113.0666,9.3703 C112.6076,9.3703 112.2146,9.2093 111.8926,8.8833 C111.5686,8.5603 111.4066,8.1683 111.4066,7.7093 C111.4066,7.2523 111.5686,6.8593 111.8926,6.5363 C112.2146,6.2123 112.6076,6.0493 113.0666,6.0493 C113.5246,6.0493 113.9156,6.2123 114.2406,6.5363 C114.5656,6.8593 114.7266,7.2523 114.7266,7.7093 C114.7266,7.7623 114.7086,7.8033 114.6736,7.8413 C114.6376,7.8773 114.5946,7.8933 114.5426,7.8933 L111.7796,7.8933 C111.8376,8.1913 111.9636,8.4343 112.1536,8.6233 C112.4066,8.8763 112.7106,9.0013 113.0666,9.0013 C113.2286,9.0013 113.3776,8.9763 113.5176,8.9233 C113.6556,8.8723 113.7836,8.7973 113.8956,8.6973 C113.9296,8.6703 113.9676,8.6563 114.0126,8.6563 Z" id="Fill-30" fill="#00A3DD"></path>
            <path d="M115.7734,7.6503 L115.7754,7.6503 C115.6844,7.6173 115.6084,7.5853 115.5474,7.5503 C115.4864,7.5203 115.4384,7.4853 115.4064,7.4493 C115.2734,7.3113 115.2084,7.1533 115.2084,6.9713 C115.2084,6.7893 115.2764,6.6263 115.4144,6.4823 C115.6984,6.1923 116.0704,6.0493 116.5294,6.0493 C116.7754,6.0493 117.0044,6.1013 117.2194,6.2053 C117.4354,6.3103 117.6304,6.4563 117.8034,6.6453 C117.8264,6.6723 117.8374,6.7093 117.8374,6.7493 C117.8374,6.8013 117.8194,6.8433 117.7824,6.8823 C117.7464,6.9183 117.7024,6.9363 117.6504,6.9363 C117.6004,6.9363 117.5634,6.9203 117.5354,6.8883 L117.4434,6.7973 C117.1894,6.5443 116.8854,6.4183 116.5294,6.4183 C116.1704,6.4183 115.8824,6.5323 115.6674,6.7613 C115.6064,6.8303 115.5784,6.9163 115.5784,7.0153 C115.5814,7.0753 115.5984,7.1273 115.6304,7.1713 C115.6634,7.2133 115.7094,7.2463 115.7704,7.2673 L117.2864,7.7703 L117.2834,7.7703 C117.3744,7.8023 117.4504,7.8363 117.5114,7.8693 C117.5724,7.9013 117.6174,7.9353 117.6504,7.9703 C117.7844,8.1063 117.8524,8.2643 117.8524,8.4493 C117.8524,8.6343 117.7814,8.7973 117.6424,8.9373 C117.3594,9.2273 116.9884,9.3703 116.5294,9.3703 C116.0334,9.3703 115.6084,9.1723 115.2534,8.7783 C115.2324,8.7483 115.2224,8.7123 115.2224,8.6713 C115.2224,8.6193 115.2394,8.5753 115.2754,8.5383 C115.3104,8.5023 115.3554,8.4833 115.4064,8.4833 C115.4534,8.4833 115.4924,8.5013 115.5254,8.5323 L115.6164,8.6233 C115.8684,8.8763 116.1714,9.0013 116.5294,9.0013 C116.8854,9.0013 117.1704,8.8893 117.3864,8.6623 C117.4484,8.5923 117.4784,8.5073 117.4784,8.4073 C117.4684,8.2813 117.4044,8.1953 117.2864,8.1533 L115.7734,7.6503 Z" id="Fill-32" fill="#00A3DD"></path>
            <path d="M118.6113,6.2334 C118.6113,6.1814 118.6293,6.1384 118.6633,6.1024 C118.7003,6.0674 118.7433,6.0494 118.7963,6.0494 C118.8463,6.0494 118.8903,6.0674 118.9263,6.1024 C118.9643,6.1384 118.9823,6.1814 118.9823,6.2334 L118.9823,9.1864 C118.9823,9.2384 118.9643,9.2814 118.9263,9.3174 C118.8903,9.3534 118.8463,9.3704 118.7963,9.3704 C118.7433,9.3704 118.7003,9.3534 118.6633,9.3174 C118.6293,9.2814 118.6113,9.2384 118.6113,9.1864 L118.6113,6.2334 Z M119.0403,5.2504 C119.0403,5.3174 119.0183,5.3774 118.9693,5.4234 C118.9233,5.4714 118.8633,5.4954 118.7963,5.4954 C118.7283,5.4954 118.6693,5.4714 118.6233,5.4234 C118.5713,5.3774 118.5493,5.3174 118.5493,5.2504 C118.5493,5.1824 118.5713,5.1234 118.6233,5.0764 C118.6693,5.0284 118.7283,5.0034 118.7963,5.0034 C118.8633,5.0034 118.9233,5.0284 118.9693,5.0764 C119.0183,5.1234 119.0403,5.1824 119.0403,5.2504 Z" id="Fill-34" fill="#00A3DD"></path>
            <path d="M121.4277,6.4179 C121.0727,6.4179 120.7677,6.5429 120.5147,6.7939 C120.2617,7.0479 120.1357,7.3519 120.1357,7.7089 C120.1357,8.0609 120.2617,8.3629 120.5147,8.6159 C120.7677,8.8709 121.0727,8.9969 121.4277,8.9969 C121.7827,8.9969 122.0877,8.8709 122.3407,8.6159 C122.5927,8.3669 122.7167,8.0639 122.7167,7.7089 C122.7167,7.3489 122.5927,7.0439 122.3407,6.7939 C122.0877,6.5429 121.7827,6.4179 121.4277,6.4179 Z M122.7167,8.7639 C122.3557,9.1619 121.9267,9.3619 121.4277,9.3619 C120.9687,9.3619 120.5777,9.2009 120.2547,8.8789 C119.9297,8.5539 119.7677,8.1639 119.7677,7.7089 C119.7677,7.2489 119.9297,6.8569 120.2547,6.5359 C120.5777,6.2119 120.9687,6.0499 121.4277,6.0499 C121.8867,6.0499 122.2787,6.2119 122.6027,6.5359 C122.9257,6.8569 123.0887,7.2489 123.0887,7.7089 L123.0887,9.3849 C123.0887,9.7259 122.9647,10.0209 122.7167,10.2719 C122.3697,10.6199 121.9487,10.7939 121.4547,10.7939 C120.9607,10.7939 120.5397,10.6199 120.1957,10.2719 C120.0657,10.1479 119.9617,10.0159 119.8837,9.8709 C119.8627,9.8349 119.8507,9.7989 119.8507,9.7609 C119.8507,9.7119 119.8677,9.6669 119.9037,9.6319 C119.9397,9.5959 119.9827,9.5769 120.0337,9.5769 C120.0857,9.5769 120.1297,9.5979 120.1687,9.6359 C120.1827,9.6469 120.1977,9.6669 120.2087,9.6909 C120.2757,9.8099 120.3587,9.9179 120.4557,10.0149 C120.5937,10.1519 120.7467,10.2549 120.9137,10.3229 C121.0807,10.3919 121.2617,10.4259 121.4547,10.4259 C121.8467,10.4259 122.1797,10.2889 122.4577,10.0109 C122.6307,9.8019 122.7167,9.5929 122.7167,9.3849 L122.7167,8.7639 Z" id="Fill-36" fill="#00A3DD"></path>
            <path d="M123.5664,6.2334 C123.5664,6.1814 123.5834,6.1384 123.6214,6.1024 C123.6554,6.0674 123.6974,6.0494 123.7504,6.0494 C123.8004,6.0494 123.8444,6.0674 123.8784,6.1024 C123.9174,6.1384 123.9334,6.1814 123.9334,6.2334 L123.9334,6.5764 C124.2984,6.2254 124.6874,6.0494 125.1014,6.0494 C125.5284,6.0494 125.8904,6.1994 126.1874,6.5004 C126.4904,6.8014 126.6404,7.1634 126.6404,7.5884 L126.6404,9.1864 C126.6404,9.2384 126.6224,9.2814 126.5854,9.3174 C126.5494,9.3534 126.5054,9.3704 126.4544,9.3704 C126.4024,9.3704 126.3584,9.3534 126.3244,9.3174 C126.2884,9.2814 126.2694,9.2384 126.2694,9.1864 L126.2694,7.5884 C126.2694,7.2624 126.1554,6.9894 125.9254,6.7634 C125.6964,6.5334 125.4214,6.4184 125.1014,6.4184 C124.7814,6.4184 124.5054,6.5334 124.2734,6.7634 C124.0464,6.9894 123.9334,7.2644 123.9334,7.5884 L123.9334,9.1864 C123.9334,9.2384 123.9174,9.2814 123.8784,9.3174 C123.8444,9.3534 123.8004,9.3704 123.7504,9.3704 C123.6974,9.3704 123.6554,9.3534 123.6214,9.3174 C123.5834,9.2814 123.5664,9.2384 123.5664,9.1864 L123.5664,6.2334 Z" id="Fill-38" fill="#00A3DD"></path>
            <path d="M128.7812,6.4179 C128.4252,6.4179 128.1222,6.5439 127.8692,6.7979 C127.6162,7.0509 127.4892,7.3549 127.4892,7.7089 C127.4892,8.0659 127.6162,8.3699 127.8692,8.6229 C128.1222,8.8759 128.4252,9.0009 128.7812,9.0009 C129.1372,9.0009 129.4422,8.8759 129.6952,8.6229 C129.9452,8.3719 130.0722,8.0669 130.0722,7.7089 C130.0722,7.3529 129.9452,7.0489 129.6952,6.7979 C129.4422,6.5439 129.1372,6.4179 128.7812,6.4179 Z M130.0722,8.7699 C129.6722,9.1699 129.2432,9.3699 128.7812,9.3699 C128.3232,9.3699 127.9302,9.2089 127.6082,8.8839 C127.2842,8.5609 127.1222,8.1679 127.1222,7.7089 C127.1222,7.2519 127.2842,6.8589 127.6082,6.5359 C127.9302,6.2119 128.3232,6.0499 128.7812,6.0499 C129.2402,6.0499 129.6322,6.2119 129.9552,6.5359 C130.2802,6.8589 130.4432,7.2519 130.4432,7.7089 L130.4432,9.1869 C130.4432,9.2379 130.4252,9.2809 130.3892,9.3169 C130.3522,9.3539 130.3092,9.3699 130.2592,9.3699 C130.2072,9.3699 130.1642,9.3539 130.1262,9.3169 C130.0902,9.2809 130.0722,9.2379 130.0722,9.1869 L130.0722,8.7699 Z" id="Fill-40" fill="#00A3DD"></path>
            <path d="M132.5889,9.0009 C132.6409,9.0009 132.6849,9.0219 132.7219,9.0559 C132.7579,9.0919 132.7759,9.1359 132.7759,9.1869 C132.7759,9.2379 132.7579,9.2809 132.7219,9.3169 C132.6849,9.3539 132.6409,9.3699 132.5889,9.3699 C131.8119,9.3699 131.4219,8.9799 131.4219,8.2019 L131.4219,6.4179 L131.1149,6.4179 C131.0649,6.4179 131.0199,6.3989 130.9839,6.3629 C130.9479,6.3289 130.9299,6.2849 130.9299,6.2329 C130.9299,6.1819 130.9479,6.1389 130.9839,6.1029 C131.0199,6.0669 131.0649,6.0499 131.1149,6.0499 L131.4219,6.0499 L131.4219,4.8069 C131.4219,4.7539 131.4379,4.7129 131.4739,4.6789 C131.5099,4.6409 131.5539,4.6239 131.6049,4.6239 C131.6559,4.6239 131.6989,4.6409 131.7359,4.6789 C131.7729,4.7129 131.7909,4.7539 131.7909,4.8069 L131.7909,6.0499 L132.3469,6.0499 C132.3979,6.0499 132.4429,6.0669 132.4789,6.1029 C132.5149,6.1389 132.5329,6.1819 132.5329,6.2329 C132.5329,6.2849 132.5149,6.3289 132.4789,6.3629 C132.4429,6.3989 132.3979,6.4179 132.3469,6.4179 L131.7909,6.4179 L131.7909,8.2019 C131.7909,8.7349 132.0569,9.0009 132.5889,9.0009" id="Fill-42" fill="#00A3DD"></path>
            <path d="M136.0586,7.5263 C136.0016,7.2313 135.8786,6.9893 135.6876,6.7973 C135.4336,6.5443 135.1296,6.4183 134.7746,6.4183 C134.4176,6.4183 134.1146,6.5443 133.8616,6.7973 C133.6706,6.9863 133.5466,7.2293 133.4876,7.5263 L136.0586,7.5263 Z M135.7196,8.6563 C135.7716,8.6563 135.8146,8.6743 135.8506,8.7113 C135.8856,8.7473 135.9036,8.7913 135.9036,8.8423 C135.9036,8.8943 135.8886,8.9353 135.8566,8.9703 C135.5466,9.2383 135.1866,9.3703 134.7746,9.3703 C134.3156,9.3703 133.9236,9.2093 133.6006,8.8833 C133.2756,8.5603 133.1146,8.1683 133.1146,7.7093 C133.1146,7.2523 133.2756,6.8593 133.6006,6.5363 C133.9236,6.2123 134.3156,6.0493 134.7746,6.0493 C135.2326,6.0493 135.6236,6.2123 135.9486,6.5363 C136.2726,6.8593 136.4356,7.2523 136.4356,7.7093 C136.4356,7.7623 136.4156,7.8033 136.3816,7.8413 C136.3466,7.8773 136.3016,7.8933 136.2516,7.8933 L133.4876,7.8933 C133.5466,8.1913 133.6706,8.4343 133.8616,8.6233 C134.1146,8.8763 134.4176,9.0013 134.7746,9.0013 C134.9366,9.0013 135.0856,8.9763 135.2256,8.9233 C135.3626,8.8723 135.4906,8.7973 135.6036,8.6973 C135.6386,8.6703 135.6776,8.6563 135.7196,8.6563 Z" id="Fill-44" fill="#00A3DD"></path>
            <path d="M139.8594,7.7089 C139.8594,7.3529 139.7334,7.0489 139.4824,6.7979 C139.2304,6.5439 138.9244,6.4179 138.5704,6.4179 C138.2134,6.4179 137.9104,6.5439 137.6554,6.7979 C137.4034,7.0509 137.2784,7.3549 137.2784,7.7089 C137.2784,8.0659 137.4034,8.3699 137.6554,8.6229 C137.9104,8.8759 138.2134,9.0009 138.5704,9.0009 C138.9244,9.0009 139.2304,8.8759 139.4824,8.6229 C139.7334,8.3719 139.8594,8.0669 139.8594,7.7089 Z M139.8594,4.8109 C139.8594,4.7589 139.8774,4.7149 139.9154,4.6799 C139.9514,4.6439 139.9944,4.6269 140.0464,4.6269 C140.0974,4.6269 140.1414,4.6439 140.1764,4.6799 C140.2124,4.7149 140.2304,4.7589 140.2304,4.8109 L140.2304,7.7089 C140.2304,8.1679 140.0674,8.5609 139.7444,8.8839 C139.4204,9.2089 139.0274,9.3699 138.5704,9.3699 C138.1114,9.3699 137.7184,9.2089 137.3954,8.8839 C137.0704,8.5609 136.9104,8.1679 136.9104,7.7089 C136.9104,7.2519 137.0704,6.8589 137.3954,6.5359 C137.7184,6.2119 138.1114,6.0499 138.5704,6.0499 C139.0274,6.0499 139.4204,6.2119 139.7444,6.5359 L139.8594,6.6509 L139.8594,4.8109 Z" id="Fill-46" fill="#00A3DD"></path>
            <path d="M143.6396,9.0058 C144.1896,9.0058 144.6616,8.8108 145.0566,8.4188 C145.4506,8.0268 145.6476,7.5528 145.6476,6.9988 C145.6476,6.4468 145.4506,5.9758 145.0566,5.5808 C144.6606,5.1888 144.1876,4.9898 143.6396,4.9898 L142.8486,4.9898 L142.8486,9.0058 L143.6396,9.0058 Z M143.6396,4.6268 C144.2936,4.6268 144.8526,4.8578 145.3166,5.3228 C145.7816,5.7848 146.0126,6.3448 146.0126,6.9988 C146.0126,7.6518 145.7816,8.2128 145.3166,8.6768 C144.8526,9.1398 144.2936,9.3698 143.6396,9.3698 L142.6626,9.3698 C142.6156,9.3698 142.5726,9.3538 142.5366,9.3178 C142.5016,9.2808 142.4826,9.2378 142.4826,9.1868 L142.4826,4.8108 C142.4826,4.7588 142.5016,4.7148 142.5366,4.6798 C142.5726,4.6438 142.6156,4.6268 142.6626,4.6268 L143.6396,4.6268 Z" id="Fill-48" fill="#00A3DD"></path>
            <path d="M146.5254,6.2334 C146.5254,6.1814 146.5434,6.1384 146.5794,6.1024 C146.6134,6.0674 146.6584,6.0494 146.7094,6.0494 C146.7604,6.0494 146.8044,6.0674 146.8394,6.1024 C146.8754,6.1384 146.8934,6.1814 146.8934,6.2334 L146.8934,6.6514 C147.2944,6.2514 147.7264,6.0494 148.1844,6.0494 C148.4324,6.0494 148.6444,6.0874 148.8204,6.1654 C148.8504,6.1764 148.8804,6.1964 148.9064,6.2214 C148.9394,6.2554 148.9564,6.2984 148.9564,6.3514 C148.9564,6.4034 148.9384,6.4474 148.9034,6.4824 C148.8684,6.5184 148.8234,6.5364 148.7734,6.5364 C148.7404,6.5364 148.7134,6.5294 148.6904,6.5184 C148.5524,6.4514 148.3844,6.4184 148.1844,6.4184 C147.8304,6.4184 147.5264,6.5444 147.2724,6.7974 C147.0194,7.0484 146.8934,7.3524 146.8934,7.7094 L146.8934,9.1864 C146.8934,9.2384 146.8754,9.2814 146.8394,9.3174 C146.8044,9.3534 146.7604,9.3704 146.7094,9.3704 C146.6584,9.3704 146.6134,9.3534 146.5794,9.3174 C146.5434,9.2814 146.5254,9.2384 146.5254,9.1864 L146.5254,6.2334 Z" id="Fill-50" fill="#00A3DD"></path>
            <path d="M149.6299,6.2334 C149.6299,6.1814 149.6479,6.1384 149.6839,6.1024 C149.7179,6.0674 149.7629,6.0494 149.8139,6.0494 C149.8649,6.0494 149.9089,6.0674 149.9459,6.1024 C149.9819,6.1384 149.9999,6.1814 149.9999,6.2334 L149.9999,9.1864 C149.9999,9.2384 149.9819,9.2814 149.9459,9.3174 C149.9089,9.3534 149.8649,9.3704 149.8139,9.3704 C149.7629,9.3704 149.7179,9.3534 149.6839,9.3174 C149.6479,9.2814 149.6299,9.2384 149.6299,9.1864 L149.6299,6.2334 Z M150.0589,5.2504 C150.0589,5.3174 150.0369,5.3774 149.9869,5.4234 C149.9409,5.4714 149.8829,5.4954 149.8139,5.4954 C149.7479,5.4954 149.6879,5.4714 149.6419,5.4234 C149.5919,5.3774 149.5679,5.3174 149.5679,5.2504 C149.5679,5.1824 149.5919,5.1234 149.6419,5.0764 C149.6879,5.0284 149.7479,5.0034 149.8139,5.0034 C149.8829,5.0034 149.9409,5.0284 149.9869,5.0764 C150.0369,5.1234 150.0589,5.1824 150.0589,5.2504 Z" id="Fill-52" fill="#00A3DD"></path>
            <path d="M152.4531,9.3271 C152.4231,9.3561 152.3811,9.3701 152.3241,9.3701 C152.2701,9.3701 152.2281,9.3541 152.1951,9.3201 C152.1811,9.3061 152.1701,9.2921 152.1651,9.2791 L150.8021,6.3051 C150.7921,6.2851 150.7891,6.2611 150.7891,6.2331 C150.7891,6.1811 150.8071,6.1391 150.8431,6.1021 C150.8781,6.0671 150.9211,6.0501 150.9731,6.0501 C151.0241,6.0501 151.0681,6.0661 151.1061,6.1001 C151.1181,6.1111 151.1281,6.1291 151.1401,6.1471 L152.3241,8.7421 L153.5121,6.1471 C153.5191,6.1331 153.5311,6.1161 153.5451,6.1021 C153.5801,6.0671 153.6261,6.0501 153.6771,6.0501 C153.7281,6.0501 153.7721,6.0671 153.8081,6.1011 C153.8461,6.1371 153.8631,6.1801 153.8631,6.2331 C153.8631,6.2591 153.8591,6.2831 153.8491,6.3051 L152.4851,9.2791 C152.4771,9.2961 152.4671,9.3121 152.4531,9.3271" id="Fill-54" fill="#00A3DD"></path>
            <path d="M157.2881,7.5263 C157.2341,7.2313 157.1091,6.9893 156.9181,6.7973 C156.6651,6.5443 156.3601,6.4183 156.0051,6.4183 C155.6491,6.4183 155.3461,6.5443 155.0911,6.7973 C154.9011,6.9863 154.7761,7.2293 154.7171,7.5263 L157.2881,7.5263 Z M156.9511,8.6563 C157.0031,8.6563 157.0451,8.6743 157.0821,8.7113 C157.1171,8.7473 157.1351,8.7913 157.1351,8.8423 C157.1351,8.8943 157.1191,8.9353 157.0871,8.9703 C156.7781,9.2383 156.4191,9.3703 156.0051,9.3703 C155.5471,9.3703 155.1541,9.2093 154.8301,8.8833 C154.5071,8.5603 154.3441,8.1683 154.3441,7.7093 C154.3441,7.2523 154.5071,6.8593 154.8301,6.5363 C155.1541,6.2123 155.5471,6.0493 156.0051,6.0493 C156.4641,6.0493 156.8551,6.2123 157.1791,6.5363 C157.5041,6.8593 157.6651,7.2523 157.6651,7.7093 C157.6651,7.7623 157.6491,7.8033 157.6121,7.8413 C157.5761,7.8773 157.5321,7.8933 157.4801,7.8933 L154.7171,7.8933 C154.7761,8.1913 154.9011,8.4343 155.0911,8.6233 C155.3461,8.8763 155.6491,9.0013 156.0051,9.0013 C156.1671,9.0013 156.3171,8.9763 156.4561,8.9233 C156.5941,8.8723 156.7221,8.7973 156.8351,8.6973 C156.8681,8.6703 156.9071,8.6563 156.9511,8.6563 Z" id="Fill-56" fill="#00A3DD"></path>
            <path d="M158.1484,6.2334 C158.1484,6.1814 158.1684,6.1384 158.2014,6.1024 C158.2374,6.0674 158.2814,6.0494 158.3334,6.0494 C158.3834,6.0494 158.4274,6.0674 158.4634,6.1024 C158.4984,6.1384 158.5174,6.1814 158.5174,6.2334 L158.5174,6.6514 C158.9194,6.2514 159.3474,6.0494 159.8084,6.0494 C160.0564,6.0494 160.2674,6.0874 160.4454,6.1654 C160.4754,6.1764 160.5034,6.1964 160.5284,6.2214 C160.5634,6.2554 160.5804,6.2984 160.5804,6.3514 C160.5804,6.4034 160.5624,6.4474 160.5254,6.4824 C160.4914,6.5184 160.4484,6.5364 160.3964,6.5364 C160.3654,6.5364 160.3364,6.5294 160.3124,6.5184 C160.1754,6.4514 160.0064,6.4184 159.8084,6.4184 C159.4534,6.4184 159.1494,6.5444 158.8954,6.7974 C158.6434,7.0484 158.5174,7.3524 158.5174,7.7094 L158.5174,9.1864 C158.5174,9.2384 158.4984,9.2814 158.4634,9.3174 C158.4274,9.3534 158.3834,9.3704 158.3334,9.3704 C158.2814,9.3704 158.2374,9.3534 158.2014,9.3174 C158.1684,9.2814 158.1484,9.2384 158.1484,9.1864 L158.1484,6.2334 Z" id="Fill-58" fill="#00A3DD"></path>
        </g>
    </g>
</svg>