<?xml version="1.0" encoding="UTF-8"?>
<svg width="180px" height="43px" viewBox="0 0 180 43" version="1.1" xmlns="http://www.w3.org/2000/svg" xmlns:xlink="http://www.w3.org/1999/xlink">
    <!-- Generator: Sketch 48.2 (47327) - http://www.bohemiancoding.com/sketch -->
    <title>twdd-logo</title>
    <desc>Created with Sketch.</desc>
    <defs>
        <polygon id="path-1" points="0 21.3632122 0 0.682266667 59.9719355 0.682266667 59.9719355 42.0441578 0 42.0441578"></polygon>
    </defs>
    <g id="index-copy" stroke="none" stroke-width="1" fill="none" fill-rule="evenodd" transform="translate(-98.000000, -20.000000)">
        <g id="twdd-logo" transform="translate(98.000000, 20.000000)">
            <path d="M70.8842903,28.5369022 C70.4662258,28.5550578 70.1613871,28.6592133 69.9707419,28.8474578 C69.723,29.1111911 69.6000968,29.4379911 69.6000968,29.83168 L69.6000968,37.16748 C69.6184839,37.6185022 69.723,37.9663244 69.9136452,38.2109467 C70.1420323,38.4737244 70.4662258,38.6055911 70.8842903,38.6055911 L86.939129,38.6055911 C87.4123548,38.5883911 87.7752581,38.4546133 88.0239677,38.2109467 C88.233,37.9281022 88.3471935,37.5793244 88.3655806,37.16748 L88.3655806,29.83168 C88.3471935,29.4571022 88.2126774,29.1484578 87.966871,28.9019244 C87.6804194,28.6592133 87.3388065,28.5369022 86.939129,28.5369022 L70.8842903,28.5369022 Z M70.5707419,39.9309467 C69.8459032,39.9118356 69.2749355,39.6777244 68.856871,39.2267022 C68.4388065,38.7365022 68.2375161,38.1717689 68.256871,37.5344133 L68.256871,29.5239911 C68.256871,28.8273911 68.4949355,28.2550133 68.9720323,27.8011244 C69.3910645,27.4074356 69.9233226,27.2105911 70.5707419,27.2105911 L87.3097742,27.2105911 C88.0133226,27.2105911 88.5949355,27.4179467 89.0517097,27.8317022 C89.4697742,28.2645689 89.6904194,28.8273911 89.7097742,29.5239911 L89.7097742,37.5344133 C89.7097742,38.2472578 89.4813871,38.8311022 89.0246129,39.2821244 C88.6239677,39.7140356 88.0510645,39.9309467 87.3097742,39.9309467 L70.5707419,39.9309467 Z M66.4288065,23.8814356 C66.1820323,23.9005467 65.9904194,23.8537244 65.8578387,23.7419244 C65.7436452,23.6291689 65.6759032,23.4781911 65.6584839,23.2909022 C65.6381613,23.0835467 65.6875161,22.9144133 65.7997742,22.7815911 C65.9342903,22.6516356 66.1133226,22.5761467 66.3446129,22.5579911 L68.2288065,22.4719911 C70.3036452,20.1786578 72.2371935,17.61108 74.0284839,14.7721244 C74.1417097,14.5829244 74.2839677,14.4615689 74.4552581,14.4061467 C74.6255806,14.36888 74.7988065,14.3870356 74.9700968,14.4615689 C75.1404194,14.5571244 75.2555806,14.68708 75.3126774,14.8562133 C75.389129,15.5145911 73.6278387,18.0162356 70.0278387,22.3592356 L87.7375161,21.3444356 C87.4723548,21.0606356 87.1946129,20.7806578 86.9100968,20.4987689 C84.5284839,18.2427022 83.339129,17.0568578 83.339129,16.9441022 C83.3004194,16.7749689 83.339129,16.6239911 83.4533226,16.49308 C83.5859032,16.3239467 83.7397742,16.2293467 83.9110645,16.2102356 C84.0997742,16.2102356 84.2817097,16.2771244 84.4539677,16.4080356 C84.4926774,16.4271467 84.5381613,16.4634578 84.5962258,16.5217467 C89.6981613,21.3530356 92.223,24.0228578 92.1659032,24.5312133 C92.1465484,24.7013022 92.0700968,24.8532356 91.9375161,24.98128 C91.803,25.0959467 91.6520323,25.1494578 91.4788065,25.1494578 C91.2717097,25.1322578 91.0994516,25.0376578 90.9649355,24.86948 C90.2807419,24.0620356 89.556871,23.2517244 88.7962258,22.44428 L66.4288065,23.8814356 Z" id="Fill-1" fill="#00A3DD"></path>
            <path d="M121.529129,26.5334844 C121.585258,26.7026178 121.585258,26.85264 121.529129,26.9854622 C121.473,27.1163733 121.357839,27.2109733 121.185581,27.2673511 C121.053,27.3237289 120.919452,27.3237289 120.786871,27.2673511 C120.65429,27.1909067 120.547839,27.0705067 120.472355,26.9004178 L119.443645,24.0805733 C119.406871,23.91144 119.397194,23.7614178 119.415581,23.6295511 C119.492032,23.4967289 119.595581,23.4030844 119.730097,23.3457511 C119.901387,23.2903289 120.05429,23.2903289 120.186871,23.3457511 C120.320419,23.4030844 120.424935,23.5253956 120.501387,23.71364 L121.529129,26.5334844 Z M115.64429,23.2607067 C115.797194,23.2052844 115.940419,23.1871289 116.073,23.2052844 C116.24429,23.2253511 116.368161,23.2998844 116.444613,23.4307956 C116.502677,23.5636178 116.521065,23.71364 116.502677,23.8818178 C116.311065,24.8603067 115.920097,25.9219289 115.33171,27.0705067 C115.255258,27.2205289 115.149774,27.3237289 115.017194,27.3810622 C114.844935,27.4355289 114.693,27.4355289 114.559452,27.3810622 C114.388161,27.3055733 114.292355,27.2014178 114.273968,27.0705067 C114.235258,26.9195289 114.253645,26.7589956 114.332032,26.5898622 C114.863323,25.53684 115.226226,24.5602622 115.416871,23.6563067 C115.435258,23.4699733 115.51171,23.3371511 115.64429,23.2607067 Z M109.847516,24.53064 C109.636548,24.5124844 109.475903,24.5679067 109.36171,24.7016844 C109.247516,24.8325956 109.188484,24.9912178 109.188484,25.1804178 L109.188484,25.8569511 C109.188484,26.0815067 109.247516,26.23344 109.36171,26.3089289 C109.49429,26.4188178 109.654935,26.4780622 109.847516,26.4780622 L111.789774,26.4780622 C111.996871,26.4780622 112.159452,26.4188178 112.274613,26.3089289 C112.351065,26.1952178 112.396548,26.04424 112.417839,25.8569511 L112.417839,25.1804178 C112.396548,24.9730622 112.351065,24.8134844 112.274613,24.7016844 C112.177839,24.5679067 112.018161,24.5124844 111.789774,24.53064 L109.847516,24.53064 Z M113.246226,21.3438622 C113.378806,21.3438622 113.483323,21.3820844 113.559774,21.4575733 C113.635258,21.5330622 113.673968,21.6353067 113.673968,21.7671733 C113.673968,21.8980844 113.635258,22.0012844 113.559774,22.0777289 C113.483323,22.1723289 113.378806,22.2181956 113.246226,22.2181956 L108.562355,22.2181956 C108.408484,22.2009956 108.29429,22.1513067 108.218806,22.0777289 C108.141387,22.0012844 108.103645,21.8980844 108.103645,21.7671733 C108.103645,21.6353067 108.141387,21.5330622 108.218806,21.4575733 C108.313645,21.3820844 108.427839,21.3438622 108.562355,21.3438622 L113.246226,21.3438622 Z M113.246226,19.0877956 C113.378806,19.0877956 113.483323,19.1250622 113.559774,19.2015067 C113.635258,19.2769956 113.673968,19.37924 113.673968,19.5101511 C113.673968,19.6429733 113.635258,19.7461733 113.559774,19.8226178 C113.483323,19.9162622 113.378806,19.9602178 113.246226,19.9602178 L108.562355,19.9602178 C108.408484,19.9430178 108.29429,19.89524 108.218806,19.8226178 C108.141387,19.7461733 108.103645,19.6429733 108.103645,19.5101511 C108.103645,19.37924 108.141387,19.2769956 108.218806,19.2015067 C108.313645,19.1250622 108.427839,19.0877956 108.562355,19.0877956 L113.246226,19.0877956 Z M109.077194,27.4651511 C108.71429,27.4450844 108.437516,27.3237289 108.245903,27.0982178 C108.037839,26.8727067 107.942032,26.5898622 107.961387,26.25064 L107.961387,24.64244 C107.979774,24.3615067 108.08429,24.0996844 108.275903,23.8531511 C108.503323,23.6467511 108.769452,23.5435511 109.077194,23.5435511 L112.445903,23.5435511 C112.770097,23.5253956 113.055581,23.6295511 113.302355,23.8531511 C113.511387,24.0805733 113.627516,24.3443067 113.645903,24.64244 L113.645903,26.25064 C113.645903,26.5898622 113.530742,26.8822622 113.302355,27.1249733 C113.074935,27.3504844 112.788484,27.4651511 112.445903,27.4651511 L109.077194,27.4651511 Z M113.246226,14.9129733 C113.378806,14.9129733 113.483323,14.9521511 113.559774,15.0257289 C113.635258,15.1021733 113.673968,15.2053733 113.673968,15.3353289 C113.673968,15.4681511 113.635258,15.5713511 113.559774,15.6458844 C113.483323,15.74144 113.378806,15.7882622 113.246226,15.7882622 L108.332032,15.7882622 C108.180097,15.7691511 108.065903,15.7232844 107.989452,15.6458844 C107.913968,15.5713511 107.876226,15.4681511 107.876226,15.3353289 C107.876226,15.2053733 107.913968,15.1021733 107.989452,15.0257289 C108.08429,14.9521511 108.199452,14.9129733 108.332032,14.9129733 L113.246226,14.9129733 Z M114.645581,22.5297067 C114.47429,22.5469067 114.332032,22.5201511 114.216871,22.4446622 C114.102677,22.3691733 114.034935,22.2459067 114.016548,22.0777289 C114.016548,21.89044 114.055258,21.7375511 114.130742,21.6257511 C114.225581,21.5330622 114.369774,21.4480178 114.559452,21.3734844 L115.416871,21.3734844 C115.873645,20.9004844 116.342032,20.3567733 116.817194,19.7366178 C116.148484,18.8909511 115.416871,18.0921067 114.617516,17.3391289 L114.588484,17.3391289 C114.568161,17.5092178 114.531387,17.6210178 114.47429,17.6773956 C114.397839,17.7719956 114.292355,17.8178622 114.159774,17.8178622 L107.30429,17.8178622 C107.152355,17.7987511 107.038161,17.75384 106.96171,17.6773956 C106.886226,17.6038178 106.847516,17.4996622 106.847516,17.36684 C106.847516,17.2349733 106.886226,17.1336844 106.96171,17.05724 C107.056548,16.9817511 107.17171,16.9444844 107.30429,16.9444844 L114.159774,16.9444844 C114.235258,16.9616844 114.303,16.9817511 114.359129,16.9999067 C114.359129,16.8126178 114.388161,16.6635511 114.445258,16.5488844 C114.559452,16.4179733 114.683323,16.3424844 114.815903,16.3233733 C115.007516,16.2851511 115.311387,16.4733956 115.730419,16.8881067 C116.187194,16.1169733 116.643968,15.2808622 117.10171,14.3778622 C117.215903,14.1886622 117.340742,14.0873733 117.47429,14.0663511 C117.604935,14.0290844 117.740419,14.0501067 117.873,14.1255956 C118.005581,14.2173289 118.101387,14.3300844 118.158484,14.4609956 C118.214613,14.7648622 117.644613,15.8264844 116.444613,17.6496844 C116.730097,17.9879511 117.073645,18.3921511 117.47429,18.86324 C118.101387,17.9019511 118.64429,16.8785511 119.102032,15.7882622 C119.176548,15.6172178 119.282032,15.5063733 119.415581,15.44904 C119.568484,15.4108178 119.71171,15.4031733 119.84429,15.4213289 C119.995258,15.4958622 120.100742,15.6000178 120.158806,15.7309289 C120.215903,15.8627956 120.215903,16.0242844 120.158806,16.2096622 C119.263645,18.0729956 118.187516,19.7461733 116.929452,21.2301511 L119.901387,20.9778844 L119.272355,19.0600844 C119.312032,18.9091067 119.397194,18.8059067 119.528806,18.7495289 C119.682677,18.6931511 119.824935,18.67404 119.958484,18.6931511 C120.110419,18.7313733 120.224613,18.8326622 120.300097,19.0027511 C121.252355,21.1661289 121.64429,22.39784 121.473,22.6969289 C121.413968,22.8297511 121.30171,22.9233956 121.130419,22.9797733 C120.976548,23.01704 120.843968,22.99984 120.729774,22.9233956 C120.615581,22.8488622 120.46171,22.5583733 120.273,22.0500178 L118.502032,22.2181956 L118.502032,27.4078178 C118.502032,27.5788622 118.443968,27.7183733 118.329774,27.8311289 C118.234935,27.9257289 118.101387,27.9830622 117.930097,28.0012178 C117.777194,27.9830622 117.644613,27.9352844 117.530419,27.8597956 C117.435581,27.7479956 117.388161,27.5970178 117.388161,27.4078178 L117.388161,22.30324 L114.645581,22.5297067 Z M107.162032,26.02704 C107.179452,26.2143289 107.152355,26.3748622 107.075903,26.5057733 C107.018806,26.6366844 106.903645,26.7121733 106.732355,26.7303289 C106.579452,26.7685511 106.447839,26.7503956 106.332677,26.6739511 C106.199129,26.5994178 106.10429,26.4675511 106.047194,26.2793067 L105.476226,23.7986844 C105.438484,23.6094844 105.456871,23.4594622 105.53429,23.3457511 C105.628161,23.19764 105.742355,23.11164 105.875903,23.0906178 C106.047194,23.0552622 106.191387,23.0753289 106.303645,23.1498622 C106.438161,23.2253511 106.533968,23.3562622 106.591065,23.5435511 L107.162032,26.02704 Z M117.816871,28.7885956 C118.443968,28.7885956 118.929774,28.9586844 119.272355,29.2979067 C119.576226,29.6189733 119.736871,30.0881511 119.759129,30.7083067 L119.759129,30.9061067 C119.736871,31.5444178 119.576226,32.0422622 119.272355,32.39964 C118.968484,32.7579733 118.43429,32.9366622 117.673645,32.9366622 L103.676226,32.9366622 C103.315258,32.9548178 103.067516,33.0589733 102.933,33.2462622 C102.782032,33.4153956 102.715258,33.6409067 102.733645,33.9227956 L102.733645,33.8396622 C102.638806,34.2715733 102.677516,34.5802178 102.847839,34.7684622 C103.019129,34.9767733 103.315258,35.0876178 103.73429,35.10864 L119.300419,35.10864 C119.720419,35.1478178 120.072677,35.31504 120.358161,35.6141289 C120.643645,35.9724622 120.748161,36.43304 120.67171,36.9968178 C120.596226,38.0517511 120.348484,38.7751067 119.930419,39.1697511 C118.996548,39.9972622 117.273968,40.4014622 114.759774,40.3813956 C112.320097,40.3641956 110.27429,40.2590844 108.617516,40.0717956 C106.409129,39.7144178 105.218806,39.4420844 105.048484,39.25384 C104.972032,39.1028622 104.943,38.9346844 104.962355,38.74644 C104.980742,38.6336844 105.018484,38.54864 105.076548,38.4922622 C105.152032,38.2858622 106.389774,38.35944 108.789774,38.7187289 C114.253645,39.2261289 117.644613,39.0569956 118.957839,38.2113289 C119.053645,38.1549511 119.130097,38.0421956 119.188161,37.8711511 C119.415581,37.2691511 119.406871,36.7990178 119.158161,36.4617067 C119.024613,36.2935289 118.845581,36.2056178 118.61429,36.2056178 L103.047194,36.2056178 C102.420097,36.1511511 101.963323,35.9724622 101.677839,35.6714622 C101.335258,35.2596178 101.220097,34.7417067 101.335258,34.1215511 L101.420419,33.3590178 C101.459129,32.9462178 101.629452,32.58884 101.93429,32.2868844 C102.220742,31.9877956 102.600097,31.8368178 103.078161,31.8368178 L117.644613,31.8368178 C117.891387,31.8368178 118.082032,31.7689733 118.214613,31.6390178 C118.329774,31.4698844 118.396548,31.2911956 118.415903,31.10104 L118.415903,30.7083067 C118.396548,30.46464 118.321065,30.27544 118.187516,30.1435733 C118.015258,29.9753956 117.816871,29.8913067 117.588484,29.8913067 L101.93429,29.8913067 C101.72429,29.8913067 101.56171,29.8320622 101.448484,29.7212178 C101.353645,29.5893511 101.306226,29.4574844 101.306226,29.3265733 C101.343968,29.1392844 101.402032,29.0064622 101.476548,28.9319289 C101.590742,28.8373289 101.744613,28.7885956 101.93429,28.7885956 L117.816871,28.7885956 Z M101.390419,23.2349067 C101.506548,23.19764 101.647839,23.1871289 101.820097,23.2052844 C101.972032,23.2444622 102.086226,23.3189956 102.16171,23.4307956 C102.220742,23.5836844 102.239129,23.7423067 102.220742,23.91144 C101.991387,24.8899289 101.56171,25.9429511 100.934613,27.0705067 C100.838806,27.23964 100.724613,27.3504844 100.591065,27.4078178 C100.439129,27.4450844 100.296871,27.4278844 100.163323,27.3504844 C99.9920323,27.2759511 99.8971935,27.1727511 99.876871,27.0399289 C99.8400968,26.9118844 99.8584839,26.7503956 99.9359032,26.5621511 C100.543645,25.52824 100.94429,24.5507067 101.134935,23.6295511 C101.17171,23.4413067 101.258806,23.30944 101.390419,23.2349067 Z M100.39171,22.5297067 C100.201065,22.5469067 100.049129,22.5201511 99.9359032,22.4446622 C99.8207419,22.3691733 99.7539677,22.2459067 99.7346129,22.0777289 C99.7162258,21.90764 99.7442903,21.7576178 99.8207419,21.6257511 C99.9146129,21.5129956 100.058806,21.4480178 100.248484,21.4279511 L101.647839,21.28844 C101.991387,20.8737289 102.37171,20.4045511 102.79171,19.8770844 C102.048484,19.0123067 101.268484,18.2048622 100.448806,17.45284 C100.296871,17.3391289 100.210742,17.2168178 100.191387,17.0859067 C100.173,16.9349289 100.201065,16.7935067 100.277516,16.6635511 C100.373323,16.5316844 100.486548,16.45524 100.621065,16.4370844 C100.887194,16.3998178 101.220097,16.6052622 101.62171,17.05724 C102.038806,16.2478844 102.429774,15.3639956 102.79171,14.4065289 C102.885581,14.2373956 103.000742,14.1255956 103.133323,14.0663511 C103.285258,14.0290844 103.429452,14.0395956 103.563,14.0950178 C103.694613,14.1714622 103.791387,14.2756178 103.847516,14.4065289 C103.885258,14.72664 103.39171,15.8522844 102.363,17.7911067 C102.666871,18.1102622 103.019129,18.4953511 103.419774,18.9473289 C104.562677,16.6903067 105.143323,15.5321733 105.162677,15.4777067 C105.238161,15.3095289 105.34171,15.1872178 105.476226,15.1107733 C105.590419,15.0735067 105.732677,15.0629956 105.903968,15.0821067 C106.037516,15.13944 106.143,15.23404 106.218484,15.3639956 C106.276548,15.5149733 106.276548,15.6755067 106.218484,15.8427289 C105.419129,17.7987511 104.379774,19.5674844 103.105258,21.1451067 L105.961065,20.8641733 C105.619452,19.7738844 105.447194,19.2015067 105.447194,19.1451289 C105.485903,19.0123067 105.571065,18.9091067 105.704613,18.8326622 C105.875903,18.7973067 106.027839,18.7867956 106.161387,18.8059067 C106.294935,18.86324 106.399452,18.97504 106.474935,19.1451289 C107.237516,21.4193511 107.589774,22.61284 107.532677,22.7265511 C107.436871,22.8383511 107.323645,22.9233956 107.189129,22.9797733 C107.038161,22.99984 106.893968,22.9797733 106.762355,22.9233956 C106.609452,22.8488622 106.467194,22.5297067 106.332677,21.9649733 L104.447516,22.1608622 L104.447516,27.2941067 C104.447516,27.4651511 104.391387,27.6056178 104.277194,27.7183733 C104.179452,27.8120178 104.047839,27.8683956 103.877516,27.8875067 C103.723645,27.8683956 103.591065,27.8225289 103.477839,27.7479956 C103.382032,27.6333289 103.332677,27.4833067 103.332677,27.2941067 L103.332677,22.2745733 L100.39171,22.5297067 Z M95.3652581,15.9287289 C95.3449355,15.7605511 95.3739677,15.5895067 95.4504194,15.4213289 C95.5442903,15.23404 95.6778387,15.1298844 95.8500968,15.1107733 C96.0407419,15.0735067 96.2294516,15.1107733 96.4210645,15.2235289 C97.5833226,15.8627956 98.7736452,16.7839511 99.9920323,17.9879511 C100.143968,18.1389289 100.230097,18.3080622 100.248484,18.4953511 C100.248484,18.6845511 100.18171,18.8422178 100.049129,18.97504 C99.9146129,19.1250622 99.7636452,19.2015067 99.5923548,19.2015067 C99.4017097,19.2015067 99.2207419,19.1164622 99.0494516,18.9473289 C97.9249355,17.8178622 96.8217097,16.9616844 95.7359032,16.3807067 C95.5065484,16.2679511 95.3826774,16.1169733 95.3652581,15.9287289 Z M95.136871,22.5583733 C95.0981613,22.3873289 95.136871,22.2181956 95.2510645,22.0500178 C95.3449355,21.8808844 95.4881613,21.7853289 95.6778387,21.7671733 C95.8500968,21.7299067 96.0300968,21.7757733 96.2217097,21.90764 C97.3075161,22.5841733 98.4204194,23.5435511 99.5642903,24.7848178 C99.6959032,24.9549067 99.7742903,25.1221289 99.7917097,25.2931733 C99.7742903,25.4804622 99.6959032,25.6409956 99.5642903,25.7728622 C99.4123548,25.9028178 99.2507419,25.9706622 99.0784839,25.9706622 C98.9071935,25.9505956 98.7359032,25.8569511 98.5636452,25.6887733 C97.5359032,24.5401956 96.5062258,23.6467511 95.4794516,23.00844 C95.2684839,22.8947289 95.1542903,22.7447067 95.136871,22.5583733 Z M98.7920323,29.1841956 C98.9246129,29.0704844 99.0871935,29.0255733 99.276871,29.0437289 C99.4675161,29.0819511 99.6204194,29.1669956 99.7346129,29.2979067 C99.8294516,29.44984 99.8671935,29.6361733 99.8488065,29.86264 C99.1065484,34.2237956 97.8494516,37.7020178 96.0775161,40.2982622 C95.9449355,40.5037067 95.7823548,40.6164622 95.5926774,40.6355733 C95.4020323,40.6355733 95.2413871,40.5973511 95.106871,40.5228178 C94.7652581,40.2036622 94.7178387,39.8749511 94.9655806,39.5357289 C96.9649355,36.5295511 98.1446129,33.2376622 98.5065484,29.6638844 C98.5636452,29.4574844 98.6584839,29.2979067 98.7920323,29.1841956 Z" id="Fill-3" fill="#00A3DD"></path>
            <path d="M143.096323,15.4773244 C143.076,15.28908 143.133097,15.1304578 143.266645,14.9985911 C143.380839,14.8485689 143.532774,14.76448 143.722452,14.7434578 C143.913097,14.7434578 144.096,14.8113022 144.266323,14.9403022 C145.598903,16.0143467 146.932452,17.4333467 148.266,19.2011244 C148.398581,19.3693022 148.455677,19.53748 148.436323,19.7085244 C148.398581,19.8948578 148.313419,20.0553911 148.179871,20.1882133 C148.026968,20.3000133 147.866323,20.3477911 147.694065,20.32868 C147.484065,20.2923689 147.312774,20.1786578 147.180194,19.9913689 C145.941484,18.3181911 144.684387,16.9718133 143.409871,15.9560578 C143.219226,15.8261022 143.11471,15.6655689 143.096323,15.4773244 Z M131.898581,23.7696356 C131.668258,23.7887467 131.48729,23.7419244 131.355677,23.6291689 C131.222129,23.5154578 131.145677,23.3654356 131.126323,23.1781467 C131.145677,22.9707911 131.193097,22.8016578 131.269548,22.6707467 C131.402129,22.5379244 131.584065,22.4633911 131.813419,22.44428 L138.439548,22.1060133 C138.26729,20.2245244 138.182129,18.3449467 138.182129,16.4634578 L138.182129,14.8858356 C138.182129,14.6603244 138.240194,14.4797244 138.354387,14.3478578 C138.486,14.2179022 138.647613,14.1519689 138.840194,14.1519689 C139.028903,14.1519689 139.182774,14.2083467 139.295032,14.3211022 C139.448903,14.4529689 139.526323,14.6421689 139.526323,14.8858356 L139.526323,16.4634578 C139.526323,18.5159911 139.591161,20.3659467 139.72471,22.0219244 L149.636323,21.4285244 C149.865677,21.4103689 150.046645,21.4667467 150.178258,21.5967022 C150.311806,21.7094578 150.389226,21.8623467 150.407613,22.0496356 C150.389226,22.2369244 150.339871,22.3974578 150.265355,22.5293244 C150.131806,22.65928 149.950839,22.7357244 149.722452,22.75388 L139.867935,23.3453689 C140.666323,29.9845689 142.637613,34.76808 145.779871,37.7025911 C146.921806,38.7183467 147.694065,39.2267022 148.09471,39.2267022 C148.398581,39.2267022 148.665677,39.0470578 148.892129,38.68968 C149.160194,38.2568133 149.445677,36.87508 149.751484,34.5435244 C149.789226,34.3371244 149.865677,34.1765911 149.978903,34.0638356 C150.093097,33.9711467 150.246,33.9319689 150.436645,33.95108 C150.626323,33.9873911 150.779226,34.0733911 150.893419,34.2062133 C150.968903,34.3562356 150.997935,34.5158133 150.979548,34.6859022 C150.616645,37.6739244 150.122129,39.50668 149.493097,40.1851244 C149.168903,40.5415467 148.778903,40.7202356 148.321161,40.7202356 C147.769548,40.7202356 147.141484,40.4947244 146.436,40.0437022 C145.371484,39.3662133 144.438581,38.5205467 143.63729,37.5057467 C140.876323,34.2903022 139.182774,29.59948 138.55471,23.4304133 L131.898581,23.7696356 Z M127.813742,23.9387689 C127.60471,24.37068 127.443097,24.76628 127.328903,25.1227022 C127.003742,25.97028 126.376645,27.0806356 125.442774,28.4499467 C125.290839,28.6592133 125.129226,28.7719689 124.956,28.7891689 C124.747935,28.8092356 124.575677,28.7614578 124.442129,28.6496578 C124.289226,28.5369022 124.205032,28.39548 124.186645,28.2263467 C124.146968,28.0390578 124.196323,27.8594133 124.328903,27.6893244 C125.794065,25.6969911 126.908903,23.7037022 127.670516,21.7094578 C128.394387,19.7362356 128.956645,17.4237911 129.356323,14.7721244 C129.394065,14.5275022 129.480194,14.36888 129.613742,14.2933911 C129.784065,14.1806356 129.965032,14.1347689 130.155677,14.1519689 C130.326968,14.2083467 130.478903,14.3029467 130.613419,14.4319467 C130.669548,14.5466133 130.697613,14.6975911 130.697613,14.8858356 C130.203097,17.91208 129.641806,20.1299244 129.012774,21.5422356 L129.012774,39.9309467 C129.012774,40.1373467 128.946,40.3055244 128.813419,40.4383467 C128.679871,40.5711689 128.51729,40.6351911 128.328581,40.6351911 C128.136968,40.6351911 127.975355,40.5711689 127.840839,40.4383467 C127.727613,40.3255911 127.670516,40.1564578 127.670516,39.9309467 L127.670516,25.6893467 C127.688903,25.1055022 127.73729,24.5207022 127.813742,23.9387689 Z" id="Fill-5" fill="#00A3DD"></path>
            <path d="M170.859387,34.8255089 C170.840032,34.6563756 170.887452,34.5063533 171.001645,34.3744867 C171.135194,34.2235089 171.296806,34.1489756 171.488419,34.1489756 C171.698419,34.13082 171.86971,34.2063089 172.003258,34.3744867 C173.716161,36.1049978 174.563903,37.2048422 174.545516,37.67402 C174.506806,37.8431533 174.420677,37.9845756 174.288097,38.0973311 C174.135194,38.19002 173.973581,38.2368422 173.800355,38.2368422 C173.611645,38.2005311 173.450032,38.08682 173.315516,37.8995311 C172.802613,37.1283978 172.059387,36.2655311 171.087774,35.3061533 C170.954226,35.1742867 170.87971,35.0137533 170.859387,34.8255089 Z M170.80229,16.3517533 C170.497452,16.37182 170.278742,16.4463533 170.145194,16.5772644 C169.973903,16.7454422 169.898419,16.9719089 169.917774,17.2528422 L169.917774,19.0024644 C169.898419,19.3053756 169.973903,19.5203756 170.145194,19.6522422 C170.335839,19.8022644 170.555516,19.8767978 170.80229,19.8767978 L177.058742,19.8767978 C177.344226,19.8595978 177.572613,19.7850644 177.743903,19.6522422 C177.858097,19.4993533 177.924871,19.2853089 177.943258,19.0024644 L177.943258,17.2528422 C177.943258,16.9537533 177.876484,16.7368422 177.743903,16.6059311 C177.591968,16.4176867 177.362613,16.3335978 177.058742,16.3517533 L170.80229,16.3517533 Z M170.117129,20.9775978 C169.659387,20.9584867 169.288742,20.8075089 169.004226,20.5265756 C168.697452,20.22462 168.555194,19.8490867 168.574548,19.3980644 L168.574548,16.7750644 C168.574548,16.3421978 168.726484,15.9752644 169.031323,15.67522 C169.335194,15.37422 169.698097,15.2337533 170.117129,15.2528644 L177.714871,15.2528644 C178.171645,15.2528644 178.551968,15.4028867 178.858742,15.7019756 C179.122935,16.0039311 179.267129,16.3622644 179.286484,16.7750644 L179.286484,19.3980644 C179.286484,19.8490867 179.132613,20.22462 178.828742,20.5265756 C178.561645,20.8075089 178.191,20.9584867 177.714871,20.9775978 L170.117129,20.9775978 Z M166.003258,35.1083533 C166.041,34.9382644 166.147452,34.8169089 166.318742,34.74142 C166.508419,34.6668867 166.688419,34.6563756 166.85971,34.7146644 C167.032935,34.7882422 167.155839,34.9210644 167.23229,35.1083533 C168.144871,37.6472644 168.535839,39.0653089 168.403258,39.3663089 C168.307452,39.5163311 168.165194,39.6204867 167.974548,39.67782 C167.783903,39.6969311 167.621323,39.6663533 167.48971,39.5927756 C167.335839,39.4962644 167.23229,39.3385978 167.173258,39.1121311 C166.946806,38.2664644 166.565516,37.1111978 166.03229,35.6434644 C165.956806,35.45522 165.947129,35.2784422 166.003258,35.1083533 Z M160.833581,34.9382644 C160.928419,34.7882422 161.063903,34.7031978 161.234226,34.6859978 C161.461645,34.6668867 161.642613,34.6936422 161.775194,34.7681756 C161.928097,34.9009978 162.014226,35.0605756 162.033581,35.24882 C162.261968,38.3687089 162.290032,40.0141756 162.11971,40.18522 C161.985194,40.2989311 161.823581,40.3543533 161.633903,40.3543533 C161.461645,40.3543533 161.30971,40.2989311 161.176161,40.18522 C161.041645,40.0342422 160.985516,39.8459978 161.003903,39.6204867 C161.003903,38.8311978 160.91971,37.4494644 160.747452,35.4762422 C160.728097,35.2860867 160.757129,35.1083533 160.833581,34.9382644 Z M166.288742,32.51402 L166.288742,30.3401311 L157.91971,30.3401311 L157.91971,31.7218644 C157.91971,32.0056644 157.986484,32.2025089 158.120032,32.3152644 C158.271968,32.4471311 158.471323,32.51402 158.719065,32.51402 L166.288742,32.51402 Z M157.91971,29.2412422 L166.288742,29.2412422 L166.288742,27.0711756 L157.91971,27.0711756 L157.91971,29.2412422 Z M166.288742,23.9111533 L158.947452,23.9111533 C158.623258,23.9293089 158.367774,24.0315533 158.177129,24.2207533 C158.006806,24.4290644 157.91971,24.6736867 157.91971,24.95462 L157.91971,25.9703756 L166.288742,25.9703756 L166.288742,23.9111533 Z M156.576484,31.4695978 L156.576484,24.8418644 C156.595839,24.1834867 156.785516,23.6760867 157.149387,23.3187089 C157.509387,22.9804422 158.006806,22.8113089 158.632935,22.8113089 L176.659065,22.8113089 C176.846806,22.8294644 177.001645,22.8762867 177.114871,22.9517756 C177.20971,23.0836422 177.258097,23.2155089 177.258097,23.3454644 C177.220355,23.5346644 177.163258,23.6665311 177.086806,23.74202 C176.972613,23.85382 176.829387,23.9111533 176.659065,23.9111533 L167.631968,23.9111533 L167.631968,25.9703756 L176.543903,25.9703756 C176.695839,25.9885311 176.829387,26.0353533 176.943581,26.1108422 C177.039387,26.2054422 177.086806,26.3363533 177.086806,26.5054867 C177.066484,26.6564644 177.019065,26.7873756 176.943581,26.9001311 C176.809065,27.0128867 176.676484,27.0711756 176.543903,27.0711756 L167.631968,27.0711756 L167.631968,29.2402867 L176.428742,29.2402867 C176.582613,29.2603533 176.715194,29.3081311 176.829387,29.3826644 C176.924226,29.4753533 176.972613,29.6091311 176.972613,29.7782644 C176.953258,29.9273311 176.905839,30.0591978 176.829387,30.1709978 C176.695839,30.28662 176.563258,30.3401311 176.428742,30.3401311 L167.631968,30.3401311 L167.631968,32.51402 L177.286161,32.51402 C177.76229,32.4385311 178.209387,32.5981089 178.628419,32.9917978 C178.971,33.34822 179.143258,33.8183533 179.143258,34.4031533 C179.105516,37.3539089 178.800677,39.1694644 178.228742,39.8459978 C177.696484,40.3352422 177.02971,40.6075756 176.229387,40.6639533 C175.620677,40.7384867 174.515516,40.5712644 172.915839,40.1565533 C172.687452,40.1173756 172.515194,40.0342422 172.402935,39.90142 C172.288742,39.7504422 172.239387,39.5641089 172.25971,39.3385978 C172.316806,38.9066867 172.582935,38.7184422 173.058097,38.77482 C174.867774,39.2640644 176.030032,39.3959311 176.543903,39.1694644 C176.886484,39.0366422 177.125516,38.8579533 177.258097,38.6333978 C177.580355,37.97502 177.743903,36.7433089 177.743903,34.9382644 C177.76229,34.5636867 177.705194,34.2521756 177.572613,34.0085089 C177.41971,33.7447756 177.134226,33.6138644 176.715194,33.6138644 L158.120032,33.6138644 C157.663258,33.5756422 157.290677,33.4332644 157.006161,33.1905533 C156.720677,32.9077089 156.576484,32.5321756 156.576484,32.0610867 L156.576484,31.6941533 L156.576484,31.4695978 Z M154.835516,16.69002 C154.607129,16.69002 154.453258,16.6326867 154.377774,16.5218422 C154.263581,16.4081311 154.206484,16.2676644 154.206484,16.0975756 C154.206484,15.9293978 154.263581,15.8070867 154.377774,15.7315978 C154.491,15.6379533 154.644871,15.58922 154.835516,15.58922 L159.204871,15.58922 C159.356806,14.7435533 159.519387,14.2839311 159.691645,14.2084422 C159.841645,14.1147978 160.013903,14.0775311 160.204548,14.0956867 C160.376806,14.1520644 160.519065,14.2457089 160.634226,14.3785311 C160.728097,14.5275978 160.765839,14.6976867 160.747452,14.8859311 C160.651645,15.1104867 160.595516,15.3465089 160.577129,15.58922 L164.748097,15.58922 C165.375194,15.6083311 165.832935,15.7975311 166.119387,16.1539533 C166.384548,16.5313978 166.518097,17.0387978 166.518097,17.6780644 C166.460032,19.4458422 166.232613,20.5829533 165.832935,21.0903533 C165.395516,21.5795978 164.317452,21.7955533 162.603581,21.73822 C161.003903,21.6445756 160.091323,21.3999533 159.862935,21.0053089 C159.787452,20.83522 159.787452,20.6584422 159.862935,20.4701978 C159.919065,20.3001089 160.033258,20.1787533 160.204548,20.1032644 C160.339065,20.0287311 160.527774,20.0287311 160.776484,20.1032644 C161.461645,20.3287756 162.204871,20.4510867 163.004226,20.4701978 C163.994226,20.4883533 164.612613,20.3478867 164.86229,20.0459311 C164.974548,19.8767978 165.061645,19.5576422 165.117774,19.0875089 C165.289065,17.8462422 165.232935,17.1133311 164.947452,16.8887756 C164.718097,16.7559533 164.451,16.69002 164.146161,16.69002 L160.262613,16.69002 C159.500032,18.7215311 158.138419,20.4510867 156.176806,21.8805978 C154.958419,22.6708422 154.206484,23.0272644 153.921,22.9517756 C153.74971,22.8953978 153.624871,22.7816867 153.549387,22.6135089 C153.339387,22.2007089 153.436161,21.9073533 153.834871,21.73822 C156.273581,20.5743533 157.957452,18.8906644 158.891323,16.69002 L154.835516,16.69002 Z M156.690677,34.62962 C156.845516,34.5541311 157.014871,34.54362 157.205516,34.5999978 C157.396161,34.6936422 157.530677,34.8073533 157.607129,34.9382644 C157.681645,35.1265089 157.681645,35.3157089 157.607129,35.5039533 C156.862935,37.3070867 155.853581,38.8875756 154.578097,40.2406422 C154.387452,40.4116867 154.206484,40.4852644 154.035194,40.4671089 C153.863903,40.4671089 153.710032,40.4011756 153.578419,40.2683533 C153.444871,40.1173756 153.378097,39.9587533 153.378097,39.78962 C153.416806,39.58322 153.501,39.4140867 153.635516,39.28222 C154.738742,38.1718644 155.644548,36.7729311 156.349065,35.0796867 C156.443903,34.85322 156.559065,34.7031978 156.690677,34.62962 Z" id="Fill-7" fill="#00A3DD"></path>
            <g id="Group-11" transform="translate(0.000000, 0.273384)">
                <mask id="mask-2" fill="white">
                    <use xlink:href="#path-1"></use>
                </mask>
                <g id="Clip-10"></g>
                <path d="M0,26.6501578 C0,19.3564022 5.94096774,13.3918244 13.4845161,13.3918244 C14.1609677,13.3918244 14.5403226,13.3784467 15.3687097,13.38418 C17.76,5.70629111 24.7248387,0.68198 33.5535484,0.68198 C42.386129,0.68198 49.8183871,6.57393556 52.0519355,14.5920022 C56.7183871,16.6540911 59.9719355,21.2751578 59.9719355,26.6501578 C59.9719355,33.83498 54.1616129,39.67438 46.9258065,39.84638 C45.8690323,41.1832022 44.2287097,42.0441578 42.3793548,42.0441578 C40.5348387,42.0441578 38.8974194,41.1870244 37.8406452,39.85498 L21.8477419,39.85498 C20.7919355,41.1870244 19.1535484,42.0441578 17.3090323,42.0441578 C15.4577419,42.0441578 13.8125806,41.17938 12.7577419,39.8406467 C5.65741935,39.5234022 0,33.74038 0,26.6501578" id="Fill-9" fill="#00A0E1" mask="url(#mask-2)"></path>
            </g>
            <path d="M31.9789355,13.0558511 C31.9789355,10.6430733 29.9989355,8.68705111 27.5563548,8.68705111 C25.1137742,8.68705111 23.1337742,10.6430733 23.1337742,13.0558511 C23.1337742,14.7357178 24.0957097,16.1938956 25.5076452,16.9229844 C24.8224839,17.1752511 24.2515161,17.6511178 23.9273226,18.2894289 C23.7705484,18.2550289 23.6089355,18.2387844 23.4444194,18.2387844 L17.427,18.2387844 C16.0295806,18.2387844 14.8982903,19.4466067 14.8982903,20.94014 C14.8982903,22.4336733 16.0295806,23.6424511 17.427,23.6424511 L22.4157097,23.6424511 L21.720871,26.1985622 L18.6792581,26.1985622 C17.4734516,26.1985622 16.4660323,27.0986956 16.2124839,28.3046067 L14.3428065,33.3776511 C13.8647419,34.67434 14.6292581,36.1382511 16.0499032,36.6485178 C17.4715161,37.1587844 19.0102258,36.5242956 19.4882903,35.2266511 L20.8228065,31.6003178 L24.6966774,31.6003178 C25.3518387,31.6003178 25.9479677,31.3318067 26.397,30.8941622 C26.817,30.54634 27.1334516,30.08194 27.2815161,29.5334511 L29.7637742,20.3887844 C30.0811935,19.2182289 29.5518387,18.0104067 28.530871,17.3128511 C30.5040968,16.8742511 31.9789355,15.1360956 31.9789355,13.0558511" id="Fill-12" fill="#FFFFFF"></path>
            <path d="M46.7681613,13.0558511 C46.7681613,10.6430733 44.7862258,8.68705111 42.3455806,8.68705111 C39.903,8.68705111 37.9210645,10.6430733 37.9210645,13.0558511 C37.9210645,14.7357178 38.8849355,16.1938956 40.2959032,16.9229844 C39.4413871,17.2364067 38.7620323,17.9024289 38.5200968,18.7930067 L36.5100968,26.1985622 L33.4684839,26.1985622 C32.2626774,26.1985622 31.2552581,27.0986956 31.0026774,28.3046067 L29.1320323,33.3776511 C28.6549355,34.67434 29.4184839,36.1382511 30.839129,36.6485178 C32.2597742,37.1587844 33.7994516,36.5242956 34.2755806,35.2266511 L35.613,31.6003178 L39.4849355,31.6003178 C40.1420323,31.6003178 40.7381613,31.3318067 41.1871935,30.8941622 C41.6071935,30.5444289 41.9226774,30.08194 42.0707419,29.5334511 L44.553,20.3887844 C44.8704194,19.2182289 44.3381613,18.0104067 43.3200968,17.3128511 C45.2933226,16.8742511 46.7681613,15.1360956 46.7681613,13.0558511" id="Fill-14" fill="#FFFFFF"></path>
            <path d="M97.707871,4.32427111 C97.6536774,4.32427111 97.6072258,4.30516 97.5694839,4.26693778 C97.5307742,4.22871556 97.5114194,4.18380444 97.5114194,4.13124889 C97.5114194,4.07582667 97.5307742,4.02900444 97.5694839,3.99078222 C97.6072258,3.95256 97.6536774,3.93440444 97.707871,3.93440444 L101.136581,3.93440444 C101.19271,3.93440444 101.238194,3.95256 101.276903,3.99078222 C101.316581,4.02900444 101.334968,4.07582667 101.334968,4.13124889 C101.334968,4.18380444 101.316581,4.22871556 101.276903,4.26693778 C101.238194,4.30516 101.19271,4.32427111 101.136581,4.32427111 L99.620129,4.32427111 L99.620129,8.81347111 C99.620129,8.86889333 99.6007742,8.91571556 99.5630323,8.95393778 C99.5262581,8.99216 99.4788387,9.01031556 99.4227097,9.01031556 C99.3675484,9.01031556 99.3210968,8.99216 99.2823871,8.95393778 C99.2436774,8.91571556 99.2243226,8.86889333 99.2243226,8.81347111 L99.2243226,4.32427111 L97.707871,4.32427111 Z" id="Fill-16" fill="#00A3DD"></path>
            <path d="M102.399194,5.85086667 C102.014032,5.85086667 101.684032,5.98655556 101.410161,6.25697778 C101.135323,6.5274 100.998871,6.85324444 100.998871,7.23355556 C100.998871,7.61482222 101.135323,7.94066667 101.410161,8.21108889 C101.684032,8.48151111 102.014032,8.6172 102.399194,8.6172 C102.784355,8.6172 103.114355,8.48151111 103.388226,8.21108889 C103.661129,7.94162222 103.796613,7.61673333 103.796613,7.23355556 C103.796613,6.85133333 103.661129,6.52548889 103.388226,6.25697778 C103.114355,5.98655556 102.784355,5.85086667 102.399194,5.85086667 Z M103.796613,8.36684444 C103.364032,8.79588889 102.898548,9.01088889 102.399194,9.01088889 C101.901774,9.01088889 101.477903,8.83697778 101.127581,8.49011111 C100.775323,8.14324444 100.600161,7.72471111 100.600161,7.23355556 C100.600161,6.74335556 100.775323,6.32386667 101.127581,5.97795556 C101.477903,5.63108889 101.901774,5.45717778 102.399194,5.45717778 C102.896613,5.45717778 103.320484,5.63108889 103.670806,5.97795556 C104.023065,6.32386667 104.198226,6.74335556 104.198226,7.23355556 L104.198226,8.81404444 C104.198226,8.86851111 104.179839,8.91533333 104.141129,8.95355556 C104.102419,8.99177778 104.055,9.01088889 103.998871,9.01088889 C103.94371,9.01088889 103.89629,8.99177778 103.856613,8.95355556 C103.816935,8.91533333 103.796613,8.86851111 103.796613,8.81404444 L103.796613,8.36684444 Z" id="Fill-18" fill="#00A3DD"></path>
            <path d="M105.001935,5.65402222 C105.001935,5.5986 105.02129,5.55273333 105.06,5.51451111 C105.09871,5.47533333 105.145161,5.45717778 105.20129,5.45717778 C105.257419,5.45717778 105.303871,5.47533333 105.344516,5.51451111 C105.384194,5.55273333 105.403548,5.5986 105.403548,5.65402222 L105.403548,8.81404444 C105.403548,8.86851111 105.384194,8.91533333 105.344516,8.95355556 C105.303871,8.99177778 105.257419,9.01088889 105.20129,9.01088889 C105.145161,9.01088889 105.09871,8.99177778 105.06,8.95355556 C105.02129,8.91533333 105.001935,8.86851111 105.001935,8.81404444 L105.001935,5.65402222 Z M105.467419,4.60004444 C105.467419,4.67457778 105.442258,4.73668889 105.39,4.78828889 C105.339677,4.83797778 105.275806,4.86377778 105.20129,4.86377778 C105.12871,4.86377778 105.064839,4.83797778 105.013548,4.78828889 C104.960323,4.73668889 104.935161,4.67457778 104.935161,4.60004444 C104.935161,4.52837778 104.960323,4.46722222 105.013548,4.41466667 C105.064839,4.36306667 105.12871,4.33726667 105.20129,4.33726667 C105.275806,4.33726667 105.339677,4.36306667 105.39,4.41466667 C105.442258,4.46722222 105.467419,4.52837778 105.467419,4.60004444 Z" id="Fill-20" fill="#00A3DD"></path>
            <path d="M108.440032,5.51116667 C108.478742,5.47485556 108.525194,5.4567 108.578419,5.4567 C108.633581,5.4567 108.680032,5.47485556 108.715839,5.51116667 C108.741968,5.53601111 108.761323,5.56945556 108.774871,5.60958889 L109.644871,8.18863333 L110.525516,5.57041111 C110.534226,5.55034444 110.546806,5.53123333 110.563258,5.51403333 C110.601968,5.47581111 110.651323,5.4567 110.71229,5.4567 C110.767452,5.4567 110.814871,5.47581111 110.852613,5.51403333 C110.891323,5.55225556 110.911645,5.59907778 110.911645,5.65354444 C110.911645,5.67934444 110.905839,5.7061 110.895194,5.73572222 L109.830677,8.88618889 C109.822935,8.91294444 109.806484,8.93683333 109.783258,8.95976667 C109.749387,8.99416667 109.702935,9.01041111 109.644871,9.01041111 C109.587774,9.01041111 109.540355,8.99321111 109.503581,8.95594444 C109.484226,8.93778889 109.468742,8.91485556 109.459065,8.88618889 L108.578419,6.27943333 L107.697774,8.88618889 C107.690032,8.91294444 107.675516,8.93396667 107.655194,8.95403333 C107.617452,8.99225556 107.570032,9.01041111 107.511,9.01041111 C107.452935,9.01041111 107.406484,8.99321111 107.370677,8.95594444 C107.350355,8.93778889 107.335839,8.91485556 107.325194,8.88618889 L106.261645,5.73572222 C106.250032,5.70418889 106.245194,5.67743333 106.245194,5.65354444 C106.245194,5.59907778 106.264548,5.55225556 106.303258,5.51403333 C106.341968,5.47581111 106.389387,5.4567 106.444548,5.4567 C106.500677,5.4567 106.549065,5.47581111 106.58971,5.51403333 C106.604226,5.52932222 106.616806,5.54938889 106.627452,5.57423333 L107.511,8.18863333 L108.381968,5.60958889 C108.397452,5.56754444 108.416806,5.5341 108.440032,5.51116667" id="Fill-22" fill="#00A3DD"></path>
            <path d="M113.195613,5.85086667 C112.810452,5.85086667 112.480452,5.98655556 112.206581,6.25697778 C111.931742,6.5274 111.79529,6.85324444 111.79529,7.23355556 C111.79529,7.61482222 111.931742,7.94066667 112.206581,8.21108889 C112.480452,8.48151111 112.810452,8.6172 113.195613,8.6172 C113.580774,8.6172 113.910774,8.48151111 114.184645,8.21108889 C114.457548,7.94162222 114.593032,7.61673333 114.593032,7.23355556 C114.593032,6.85133333 114.457548,6.52548889 114.184645,6.25697778 C113.910774,5.98655556 113.580774,5.85086667 113.195613,5.85086667 Z M114.593032,8.36684444 C114.160452,8.79588889 113.694968,9.01088889 113.195613,9.01088889 C112.698194,9.01088889 112.274323,8.83697778 111.924,8.49011111 C111.571742,8.14324444 111.396581,7.72471111 111.396581,7.23355556 C111.396581,6.74335556 111.571742,6.32386667 111.924,5.97795556 C112.274323,5.63108889 112.698194,5.45717778 113.195613,5.45717778 C113.693032,5.45717778 114.116903,5.63108889 114.467226,5.97795556 C114.819484,6.32386667 114.994645,6.74335556 114.994645,7.23355556 L114.994645,8.81404444 C114.994645,8.86851111 114.976258,8.91533333 114.937548,8.95355556 C114.898839,8.99177778 114.851419,9.01088889 114.79529,9.01088889 C114.740129,9.01088889 114.69271,8.99177778 114.653032,8.95355556 C114.613355,8.91533333 114.593032,8.86851111 114.593032,8.81404444 L114.593032,8.36684444 Z" id="Fill-24" fill="#00A3DD"></path>
            <path d="M115.511903,5.65402222 C115.511903,5.5986 115.532226,5.55273333 115.570935,5.51451111 C115.608677,5.47533333 115.655129,5.45717778 115.711258,5.45717778 C115.767387,5.45717778 115.813839,5.47533333 115.853516,5.51451111 C115.892226,5.55273333 115.910613,5.5986 115.910613,5.65402222 L115.910613,6.02191111 C116.304484,5.64542222 116.727387,5.45717778 117.177387,5.45717778 C117.639,5.45717778 118.031903,5.61771111 118.353194,5.93973333 C118.68029,6.2608 118.843839,6.64875556 118.843839,7.10455556 L118.843839,8.81404444 C118.843839,8.86851111 118.824484,8.91533333 118.784806,8.95355556 C118.745129,8.99177778 118.69771,9.01088889 118.641581,9.01088889 C118.586419,9.01088889 118.539,8.99177778 118.50029,8.95355556 C118.462548,8.91533333 118.442226,8.86851111 118.442226,8.81404444 L118.442226,7.10455556 C118.442226,6.75482222 118.318355,6.46146667 118.070613,6.22162222 C117.821903,5.97413333 117.523839,5.85086667 117.177387,5.85086667 C116.829,5.85086667 116.530935,5.97413333 116.28029,6.22162222 C116.033516,6.46337778 115.910613,6.75673333 115.910613,7.10455556 L115.910613,8.81404444 C115.910613,8.86851111 115.892226,8.91533333 115.853516,8.95355556 C115.813839,8.99177778 115.767387,9.01088889 115.711258,9.01088889 C115.655129,9.01088889 115.608677,8.99177778 115.570935,8.95355556 C115.532226,8.91533333 115.511903,8.86851111 115.511903,8.81404444 L115.511903,5.65402222 Z" id="Fill-26" fill="#00A3DD"></path>
            <path d="M122.546032,8.62054444 C123.141194,8.62054444 123.654097,8.41032222 124.081839,7.99274444 C124.507645,7.57134444 124.721516,7.0649 124.721516,6.47245556 C124.721516,5.88287778 124.507645,5.37643333 124.081839,4.95598889 C123.652161,4.53554444 123.139258,4.32436667 122.546032,4.32436667 L121.687645,4.32436667 L121.687645,8.62054444 L122.546032,8.62054444 Z M122.546032,3.9345 C123.254419,3.9345 123.860226,4.18198889 124.361516,4.67983333 C124.864742,5.17481111 125.116355,5.77298889 125.116355,6.47245556 C125.116355,7.17192222 124.864742,7.77105556 124.361516,8.26794444 C123.860226,8.76292222 123.254419,9.01041111 122.546032,9.01041111 L121.48829,9.01041111 C121.436032,9.01041111 121.389581,8.99225556 121.350871,8.95403333 C121.312161,8.91581111 121.292806,8.86898889 121.292806,8.81356667 L121.292806,4.13134444 C121.292806,4.07592222 121.312161,4.0291 121.350871,3.99087778 C121.389581,3.95265556 121.436032,3.9345 121.48829,3.9345 L122.546032,3.9345 Z" id="Fill-28" fill="#00A3DD"></path>
            <path d="M128.85329,7.03690222 C128.79329,6.72156889 128.659742,6.46165778 128.451677,6.25716889 C128.177806,5.98579111 127.847806,5.85105778 127.462645,5.85105778 C127.076516,5.85105778 126.746516,5.98579111 126.472645,6.25716889 C126.266516,6.45974667 126.131032,6.71965778 126.067161,7.03690222 L128.85329,7.03690222 Z M128.487484,8.24663556 C128.543613,8.24663556 128.590065,8.26574667 128.628774,8.30492444 C128.667484,8.34314667 128.685871,8.39092444 128.685871,8.44634667 C128.685871,8.50081333 128.669419,8.54572444 128.634581,8.58203556 C128.30071,8.86774667 127.909742,9.01012444 127.462645,9.01012444 C126.965226,9.01012444 126.540387,8.83716889 126.190065,8.49030222 C125.838774,8.14343556 125.662645,7.72490222 125.662645,7.23374667 C125.662645,6.74259111 125.838774,6.32405778 126.190065,5.97814667 C126.540387,5.63032444 126.965226,5.45736889 127.462645,5.45736889 C127.959097,5.45736889 128.383935,5.63032444 128.734258,5.97814667 C129.085548,6.32405778 129.261677,6.74259111 129.261677,7.23374667 C129.261677,7.28916889 129.242323,7.33503556 129.203613,7.37421333 C129.164903,7.41148 129.117484,7.43059111 129.062323,7.43059111 L126.067161,7.43059111 C126.131032,7.74783556 126.266516,8.00870222 126.472645,8.21128 C126.746516,8.48170222 127.076516,8.61643556 127.462645,8.61643556 C127.637806,8.61643556 127.800387,8.58872444 127.950387,8.53234667 C128.100387,8.47692444 128.237806,8.39665778 128.361677,8.29059111 C128.398452,8.26001333 128.440065,8.24663556 128.487484,8.24663556 Z" id="Fill-30" fill="#00A3DD"></path>
            <path d="M130.395677,7.17039333 L130.399548,7.17039333 C130.299871,7.13408222 130.217613,7.09968222 130.151806,7.06432667 C130.086,7.02992667 130.033742,6.99266 129.997935,6.95443778 C129.853742,6.80823778 129.782129,6.63814889 129.782129,6.44321556 C129.782129,6.24732667 129.856645,6.07341556 130.007613,5.91957111 C130.315355,5.61092667 130.717935,5.45708222 131.215355,5.45708222 C131.480516,5.45708222 131.730194,5.51346 131.963419,5.62334889 C132.196645,5.73514889 132.408581,5.89186 132.596323,6.09443778 C132.620516,6.12406 132.633097,6.16132667 132.633097,6.20528222 C132.633097,6.26070444 132.612774,6.30848222 132.573097,6.34766 C132.533419,6.38683778 132.485032,6.40594889 132.429871,6.40594889 C132.376645,6.40594889 132.335032,6.38874889 132.305032,6.35434889 L132.204387,6.25688222 C131.930516,5.98646 131.600516,5.85077111 131.215355,5.85077111 C130.82729,5.85077111 130.515677,5.97308222 130.280516,6.21866 C130.215677,6.29223778 130.183742,6.38397111 130.183742,6.49099333 C130.187613,6.55406 130.207935,6.60948222 130.241806,6.65630444 C130.275677,6.70312667 130.326968,6.73752667 130.392774,6.76046 L132.034065,7.29748222 L132.031161,7.29748222 C132.129871,7.33379333 132.212129,7.36819333 132.278903,7.40354889 C132.345677,7.43794889 132.395032,7.47426 132.429871,7.51248222 C132.576,7.65677111 132.648581,7.82686 132.648581,8.02466 C132.648581,8.22341556 132.572129,8.39732667 132.420194,8.54734889 C132.113419,8.85694889 131.711806,9.01079333 131.215355,9.01079333 C130.67729,9.01079333 130.216645,8.79866 129.833419,8.37630444 C129.810194,8.34477111 129.798581,8.30559333 129.798581,8.26259333 C129.798581,8.20717111 129.816968,8.15939333 129.855677,8.12021556 C129.894387,8.08103778 129.941806,8.06192667 129.997935,8.06192667 C130.049226,8.06192667 130.091806,8.07912667 130.126645,8.11257111 L130.225355,8.21099333 C130.499226,8.48141556 130.829226,8.61710444 131.215355,8.61710444 C131.600516,8.61710444 131.910194,8.49574889 132.144387,8.25208222 C132.210194,8.17850444 132.243097,8.08772667 132.243097,7.97974889 C132.232452,7.84406 132.162774,7.75232667 132.034065,7.70741556 L130.395677,7.17039333 Z" id="Fill-32" fill="#00A3DD"></path>
            <path d="M133.470871,5.65402222 C133.470871,5.5986 133.490226,5.55273333 133.528935,5.51451111 C133.567645,5.47533333 133.614097,5.45717778 133.670226,5.45717778 C133.726355,5.45717778 133.772806,5.47533333 133.813452,5.51451111 C133.853129,5.55273333 133.872484,5.5986 133.872484,5.65402222 L133.872484,8.81404444 C133.872484,8.86851111 133.853129,8.91533333 133.813452,8.95355556 C133.772806,8.99177778 133.726355,9.01088889 133.670226,9.01088889 C133.614097,9.01088889 133.567645,8.99177778 133.528935,8.95355556 C133.490226,8.91533333 133.470871,8.86851111 133.470871,8.81404444 L133.470871,5.65402222 Z M133.936355,4.60004444 C133.936355,4.67457778 133.911194,4.73668889 133.858935,4.78828889 C133.808613,4.83797778 133.744742,4.86377778 133.670226,4.86377778 C133.597645,4.86377778 133.533774,4.83797778 133.482484,4.78828889 C133.429258,4.73668889 133.404097,4.67457778 133.404097,4.60004444 C133.404097,4.52837778 133.429258,4.46722222 133.482484,4.41466667 C133.533774,4.36306667 133.597645,4.33726667 133.670226,4.33726667 C133.744742,4.33726667 133.808613,4.36306667 133.858935,4.41466667 C133.911194,4.46722222 133.936355,4.52837778 133.936355,4.60004444 Z" id="Fill-34" fill="#00A3DD"></path>
            <path d="M136.523419,5.85086667 C136.138258,5.85086667 135.808258,5.9856 135.534387,6.25315556 C135.259548,6.52453333 135.123097,6.85037778 135.123097,7.23068889 C135.123097,7.60908889 135.259548,7.93397778 135.534387,8.2044 C135.808258,8.47577778 136.138258,8.61146667 136.523419,8.61146667 C136.908581,8.61146667 137.238581,8.47577778 137.512452,8.2044 C137.785355,7.93684444 137.920839,7.61195556 137.920839,7.23068889 C137.920839,6.84751111 137.785355,6.52166667 137.512452,6.25315556 C137.238581,5.9856 136.908581,5.85086667 136.523419,5.85086667 Z M137.920839,8.36015556 C137.528903,8.78728889 137.063419,9.00133333 136.523419,9.00133333 C136.026,9.00133333 135.602129,8.82837778 135.251806,8.48437778 C134.899548,8.13751111 134.724387,7.71897778 134.724387,7.23068889 C134.724387,6.74048889 134.899548,6.32195556 135.251806,5.97795556 C135.602129,5.63108889 136.026,5.45717778 136.523419,5.45717778 C137.020839,5.45717778 137.44471,5.63108889 137.795032,5.97795556 C138.14729,6.32195556 138.322452,6.74048889 138.322452,7.23068889 L138.322452,9.02617778 C138.322452,9.39024444 138.188903,9.70653333 137.920839,9.97504444 C137.544387,10.3477111 137.087613,10.5330889 136.552452,10.5330889 C136.01729,10.5330889 135.561484,10.3477111 135.186968,9.97504444 C135.047613,9.84413333 134.934387,9.7008 134.850194,9.54695556 C134.826,9.50682222 134.813419,9.46764444 134.813419,9.42942222 C134.813419,9.37495556 134.833742,9.32813333 134.871484,9.28991111 C134.910194,9.25168889 134.957613,9.23257778 135.012774,9.23257778 C135.068903,9.23257778 135.11729,9.2536 135.157935,9.29373333 C135.174387,9.30711111 135.189871,9.32813333 135.203419,9.35297778 C135.276,9.48006667 135.365032,9.59568889 135.469548,9.69888889 C135.618581,9.847 135.785032,9.95784444 135.966,10.0304667 C136.146968,10.1030889 136.342452,10.1394 136.552452,10.1394 C136.976323,10.1394 137.338258,9.99224444 137.638258,9.69506667 C137.826968,9.47146667 137.920839,9.24882222 137.920839,9.02617778 L137.920839,8.36015556 Z" id="Fill-36" fill="#00A3DD"></path>
            <path d="M138.839806,5.65402222 C138.839806,5.5986 138.860129,5.55273333 138.898839,5.51451111 C138.936581,5.47533333 138.983032,5.45717778 139.039161,5.45717778 C139.09529,5.45717778 139.141742,5.47533333 139.181419,5.51451111 C139.220129,5.55273333 139.238516,5.5986 139.238516,5.65402222 L139.238516,6.02191111 C139.632387,5.64542222 140.05529,5.45717778 140.50529,5.45717778 C140.966903,5.45717778 141.359806,5.61771111 141.681097,5.93973333 C142.008194,6.2608 142.171742,6.64875556 142.171742,7.10455556 L142.171742,8.81404444 C142.171742,8.86851111 142.152387,8.91533333 142.11271,8.95355556 C142.073032,8.99177778 142.025613,9.01088889 141.969484,9.01088889 C141.914323,9.01088889 141.866903,8.99177778 141.828194,8.95355556 C141.790452,8.91533333 141.770129,8.86851111 141.770129,8.81404444 L141.770129,7.10455556 C141.770129,6.75482222 141.646258,6.46146667 141.398516,6.22162222 C141.149806,5.97413333 140.851742,5.85086667 140.50529,5.85086667 C140.156903,5.85086667 139.858839,5.97413333 139.608194,6.22162222 C139.361419,6.46337778 139.238516,6.75673333 139.238516,7.10455556 L139.238516,8.81404444 C139.238516,8.86851111 139.220129,8.91533333 139.181419,8.95355556 C139.141742,8.99177778 139.09529,9.01088889 139.039161,9.01088889 C138.983032,9.01088889 138.936581,8.99177778 138.898839,8.95355556 C138.860129,8.91533333 138.839806,8.86851111 138.839806,8.81404444 L138.839806,5.65402222 Z" id="Fill-38" fill="#00A3DD"></path>
            <path d="M144.492194,5.85086667 C144.107032,5.85086667 143.777032,5.98655556 143.503161,6.25697778 C143.228323,6.5274 143.091871,6.85324444 143.091871,7.23355556 C143.091871,7.61482222 143.228323,7.94066667 143.503161,8.21108889 C143.777032,8.48151111 144.107032,8.6172 144.492194,8.6172 C144.877355,8.6172 145.207355,8.48151111 145.481226,8.21108889 C145.754129,7.94162222 145.889613,7.61673333 145.889613,7.23355556 C145.889613,6.85133333 145.754129,6.52548889 145.481226,6.25697778 C145.207355,5.98655556 144.877355,5.85086667 144.492194,5.85086667 Z M145.889613,8.36684444 C145.457032,8.79588889 144.991548,9.01088889 144.492194,9.01088889 C143.994774,9.01088889 143.570903,8.83697778 143.220581,8.49011111 C142.868323,8.14324444 142.693161,7.72471111 142.693161,7.23355556 C142.693161,6.74335556 142.868323,6.32386667 143.220581,5.97795556 C143.570903,5.63108889 143.994774,5.45717778 144.492194,5.45717778 C144.989613,5.45717778 145.413484,5.63108889 145.763806,5.97795556 C146.116065,6.32386667 146.291226,6.74335556 146.291226,7.23355556 L146.291226,8.81404444 C146.291226,8.86851111 146.272839,8.91533333 146.234129,8.95355556 C146.195419,8.99177778 146.148,9.01088889 146.091871,9.01088889 C146.03671,9.01088889 145.98929,8.99177778 145.949613,8.95355556 C145.909935,8.91533333 145.889613,8.86851111 145.889613,8.81404444 L145.889613,8.36684444 Z" id="Fill-40" fill="#00A3DD"></path>
            <path d="M148.618355,8.61672222 C148.674484,8.61672222 148.720935,8.63678889 148.760613,8.67501111 C148.80029,8.71227778 148.820613,8.75814444 148.820613,8.81356667 C148.820613,8.86898889 148.80029,8.91485556 148.760613,8.95403333 C148.720935,8.99225556 148.674484,9.01041111 148.618355,9.01041111 C147.774484,9.01041111 147.351581,8.59378889 147.351581,7.76054444 L147.351581,5.85038889 L147.021581,5.85038889 C146.965452,5.85038889 146.917065,5.83127778 146.877387,5.79305556 C146.838677,5.75578889 146.819323,5.70896667 146.819323,5.65354444 C146.819323,5.59907778 146.838677,5.55225556 146.877387,5.51403333 C146.917065,5.47581111 146.965452,5.4567 147.021581,5.4567 L147.351581,5.4567 L147.351581,4.12752222 C147.351581,4.0721 147.370935,4.02623333 147.409645,3.98801111 C147.448355,3.94978889 147.495774,3.93163333 147.550935,3.93163333 C147.607065,3.93163333 147.654484,3.94978889 147.694161,3.98801111 C147.733839,4.02623333 147.753194,4.0721 147.753194,4.12752222 L147.753194,5.4567 L148.355129,5.4567 C148.41029,5.4567 148.45771,5.47581111 148.497387,5.51403333 C148.537065,5.55225556 148.557387,5.59907778 148.557387,5.65354444 C148.557387,5.70896667 148.537065,5.75578889 148.497387,5.79305556 C148.45771,5.83127778 148.41029,5.85038889 148.355129,5.85038889 L147.753194,5.85038889 L147.753194,7.76054444 C147.753194,8.33101111 148.041581,8.61672222 148.618355,8.61672222" id="Fill-42" fill="#00A3DD"></path>
            <path d="M152.376871,7.03690222 C152.316871,6.72156889 152.183323,6.46165778 151.975258,6.25716889 C151.701387,5.98579111 151.371387,5.85105778 150.986226,5.85105778 C150.600097,5.85105778 150.270097,5.98579111 149.996226,6.25716889 C149.790097,6.45974667 149.654613,6.71965778 149.590742,7.03690222 L152.376871,7.03690222 Z M152.011065,8.24663556 C152.067194,8.24663556 152.113645,8.26574667 152.152355,8.30492444 C152.191065,8.34314667 152.209452,8.39092444 152.209452,8.44634667 C152.209452,8.50081333 152.193,8.54572444 152.158161,8.58203556 C151.82429,8.86774667 151.433323,9.01012444 150.986226,9.01012444 C150.488806,9.01012444 150.063968,8.83716889 149.713645,8.49030222 C149.362355,8.14343556 149.186226,7.72490222 149.186226,7.23374667 C149.186226,6.74259111 149.362355,6.32405778 149.713645,5.97814667 C150.063968,5.63032444 150.488806,5.45736889 150.986226,5.45736889 C151.482677,5.45736889 151.907516,5.63032444 152.257839,5.97814667 C152.609129,6.32405778 152.785258,6.74259111 152.785258,7.23374667 C152.785258,7.28916889 152.765903,7.33503556 152.727194,7.37421333 C152.688484,7.41148 152.641065,7.43059111 152.585903,7.43059111 L149.590742,7.43059111 C149.654613,7.74783556 149.790097,8.00870222 149.996226,8.21128 C150.270097,8.48170222 150.600097,8.61643556 150.986226,8.61643556 C151.161387,8.61643556 151.323968,8.58872444 151.473968,8.53234667 C151.623968,8.47692444 151.761387,8.39665778 151.885258,8.29059111 C151.922032,8.26001333 151.963645,8.24663556 152.011065,8.24663556 Z" id="Fill-44" fill="#00A3DD"></path>
            <path d="M156.496355,7.23384222 C156.496355,6.85162 156.359903,6.52577556 156.087968,6.25726444 C155.814097,5.98588667 155.484097,5.85115333 155.098935,5.85115333 C154.712806,5.85115333 154.382806,5.98588667 154.108935,6.25726444 C153.835065,6.52768667 153.697645,6.85353111 153.697645,7.23384222 C153.697645,7.61415333 153.835065,7.93999778 154.108935,8.21042 C154.382806,8.48179778 154.712806,8.61653111 155.098935,8.61653111 C155.484097,8.61653111 155.814097,8.48179778 156.087968,8.21042 C156.359903,7.94190889 156.496355,7.61606444 156.496355,7.23384222 Z M156.496355,4.13115333 C156.496355,4.07573111 156.516677,4.02890889 156.556355,3.99068667 C156.596032,3.95246444 156.642484,3.93430889 156.698613,3.93430889 C156.754742,3.93430889 156.801194,3.95246444 156.839903,3.99068667 C156.879581,4.02890889 156.897968,4.07573111 156.897968,4.13115333 L156.897968,7.23384222 C156.897968,7.72499778 156.721839,8.14353111 156.370548,8.48944222 C156.020226,8.83726444 155.595387,9.01022 155.098935,9.01022 C154.601516,9.01022 154.177645,8.83726444 153.826355,8.48944222 C153.475065,8.14353111 153.298935,7.72499778 153.298935,7.23384222 C153.298935,6.74268667 153.475065,6.32415333 153.826355,5.97824222 C154.177645,5.63042 154.601516,5.45746444 155.098935,5.45746444 C155.595387,5.45746444 156.020226,5.63042 156.370548,5.97824222 L156.496355,6.10055333 L156.496355,4.13115333 Z" id="Fill-46" fill="#00A3DD"></path>
            <path d="M160.593194,8.62054444 C161.188355,8.62054444 161.701258,8.41032222 162.129,7.99274444 C162.554806,7.57134444 162.768677,7.0649 162.768677,6.47245556 C162.768677,5.88287778 162.554806,5.37643333 162.129,4.95598889 C161.699323,4.53554444 161.186419,4.32436667 160.593194,4.32436667 L159.734806,4.32436667 L159.734806,8.62054444 L160.593194,8.62054444 Z M160.593194,3.9345 C161.301581,3.9345 161.907387,4.18198889 162.408677,4.67983333 C162.911903,5.17481111 163.163516,5.77298889 163.163516,6.47245556 C163.163516,7.17192222 162.911903,7.77105556 162.408677,8.26794444 C161.907387,8.76292222 161.301581,9.01041111 160.593194,9.01041111 L159.535452,9.01041111 C159.483194,9.01041111 159.436742,8.99225556 159.398032,8.95403333 C159.359323,8.91581111 159.339968,8.86898889 159.339968,8.81356667 L159.339968,4.13134444 C159.339968,4.07592222 159.359323,4.0291 159.398032,3.99087778 C159.436742,3.95265556 159.483194,3.9345 159.535452,3.9345 L160.593194,3.9345 Z" id="Fill-48" fill="#00A3DD"></path>
            <path d="M163.719484,5.65402222 C163.719484,5.5986 163.739806,5.55273333 163.777548,5.51451111 C163.816258,5.47533333 163.86271,5.45717778 163.918839,5.45717778 C163.974968,5.45717778 164.021419,5.47533333 164.061097,5.51451111 C164.098839,5.55273333 164.118194,5.5986 164.118194,5.65402222 L164.118194,6.10122222 C164.55271,5.67217778 165.020129,5.45717778 165.518516,5.45717778 C165.787548,5.45717778 166.015935,5.49826667 166.206581,5.5814 C166.240452,5.59382222 166.272387,5.61388889 166.299484,5.64064444 C166.336258,5.67695556 166.354645,5.72377778 166.354645,5.78111111 C166.354645,5.83557778 166.33529,5.8824 166.296581,5.91966667 C166.257871,5.95788889 166.210452,5.97795556 166.15529,5.97795556 C166.120452,5.97795556 166.090452,5.97126667 166.06529,5.95788889 C165.916258,5.88622222 165.733355,5.85086667 165.518516,5.85086667 C165.133355,5.85086667 164.803355,5.98655556 164.529484,6.25697778 C164.255613,6.52548889 164.118194,6.85133333 164.118194,7.23355556 L164.118194,8.81404444 C164.118194,8.86851111 164.098839,8.91533333 164.061097,8.95355556 C164.021419,8.99177778 163.974968,9.01088889 163.918839,9.01088889 C163.86271,9.01088889 163.816258,8.99177778 163.777548,8.95355556 C163.739806,8.91533333 163.719484,8.86851111 163.719484,8.81404444 L163.719484,5.65402222 Z" id="Fill-50" fill="#00A3DD"></path>
            <path d="M167.083839,5.65402222 C167.083839,5.5986 167.103194,5.55273333 167.141903,5.51451111 C167.180613,5.47533333 167.227065,5.45717778 167.283194,5.45717778 C167.339323,5.45717778 167.385774,5.47533333 167.426419,5.51451111 C167.466097,5.55273333 167.485452,5.5986 167.485452,5.65402222 L167.485452,8.81404444 C167.485452,8.86851111 167.466097,8.91533333 167.426419,8.95355556 C167.385774,8.99177778 167.339323,9.01088889 167.283194,9.01088889 C167.227065,9.01088889 167.180613,8.99177778 167.141903,8.95355556 C167.103194,8.91533333 167.083839,8.86851111 167.083839,8.81404444 L167.083839,5.65402222 Z M167.549323,4.60004444 C167.549323,4.67457778 167.524161,4.73668889 167.471903,4.78828889 C167.421581,4.83797778 167.35771,4.86377778 167.283194,4.86377778 C167.210613,4.86377778 167.146742,4.83797778 167.095452,4.78828889 C167.042226,4.73668889 167.017065,4.67457778 167.017065,4.60004444 C167.017065,4.52837778 167.042226,4.46722222 167.095452,4.41466667 C167.146742,4.36306667 167.210613,4.33726667 167.283194,4.33726667 C167.35771,4.33726667 167.421581,4.36306667 167.471903,4.41466667 C167.524161,4.46722222 167.549323,4.52837778 167.549323,4.60004444 Z" id="Fill-52" fill="#00A3DD"></path>
            <path d="M170.143065,8.96292 C170.111129,8.99445333 170.064677,9.01069778 170.004677,9.01069778 C169.946613,9.01069778 169.900161,8.99254222 169.863387,8.95623111 C169.847903,8.94189778 169.838226,8.92660889 169.831452,8.91227556 L168.352742,5.72932 C168.345,5.70925333 168.340161,5.68345333 168.340161,5.65383111 C168.340161,5.59840889 168.359516,5.55254222 168.398226,5.51432 C168.435968,5.47609778 168.483387,5.45698667 168.539516,5.45698667 C168.594677,5.45698667 168.643065,5.47514222 168.68371,5.51145333 C168.697258,5.52292 168.708871,5.54107556 168.719516,5.56114222 L170.004677,8.33798667 L171.290806,5.56114222 C171.298548,5.54489778 171.310161,5.52865333 171.325645,5.51432 C171.36629,5.47609778 171.41371,5.45698667 171.469839,5.45698667 C171.525968,5.45698667 171.573387,5.47609778 171.613065,5.51336444 C171.652742,5.54967556 171.672097,5.59745333 171.672097,5.65383111 C171.672097,5.68058667 171.667258,5.70638667 171.655645,5.72932 L170.177903,8.91227556 C170.169194,8.93138667 170.158548,8.94763111 170.143065,8.96292" id="Fill-54" fill="#00A3DD"></path>
            <path d="M175.383387,7.03690222 C175.323387,6.72156889 175.189839,6.46165778 174.981774,6.25716889 C174.707903,5.98579111 174.377903,5.85105778 173.992742,5.85105778 C173.606613,5.85105778 173.276613,5.98579111 173.002742,6.25716889 C172.796613,6.45974667 172.661129,6.71965778 172.597258,7.03690222 L175.383387,7.03690222 Z M175.017581,8.24663556 C175.07371,8.24663556 175.120161,8.26574667 175.158871,8.30492444 C175.197581,8.34314667 175.215968,8.39092444 175.215968,8.44634667 C175.215968,8.50081333 175.199516,8.54572444 175.164677,8.58203556 C174.830806,8.86774667 174.439839,9.01012444 173.992742,9.01012444 C173.495323,9.01012444 173.070484,8.83716889 172.720161,8.49030222 C172.368871,8.14343556 172.192742,7.72490222 172.192742,7.23374667 C172.192742,6.74259111 172.368871,6.32405778 172.720161,5.97814667 C173.070484,5.63032444 173.495323,5.45736889 173.992742,5.45736889 C174.489194,5.45736889 174.914032,5.63032444 175.264355,5.97814667 C175.615645,6.32405778 175.791774,6.74259111 175.791774,7.23374667 C175.791774,7.28916889 175.772419,7.33503556 175.73371,7.37421333 C175.695,7.41148 175.647581,7.43059111 175.592419,7.43059111 L172.597258,7.43059111 C172.661129,7.74783556 172.796613,8.00870222 173.002742,8.21128 C173.276613,8.48170222 173.606613,8.61643556 173.992742,8.61643556 C174.167903,8.61643556 174.330484,8.58872444 174.480484,8.53234667 C174.630484,8.47692444 174.767903,8.39665778 174.891774,8.29059111 C174.928548,8.26001333 174.970161,8.24663556 175.017581,8.24663556 Z" id="Fill-56" fill="#00A3DD"></path>
            <path d="M176.315226,5.65402222 C176.315226,5.5986 176.335548,5.55273333 176.37329,5.51451111 C176.412,5.47533333 176.458452,5.45717778 176.514581,5.45717778 C176.57071,5.45717778 176.617161,5.47533333 176.656839,5.51451111 C176.694581,5.55273333 176.713935,5.5986 176.713935,5.65402222 L176.713935,6.10122222 C177.148452,5.67217778 177.615871,5.45717778 178.114258,5.45717778 C178.38329,5.45717778 178.611677,5.49826667 178.802323,5.5814 C178.836194,5.59382222 178.868129,5.61388889 178.895226,5.64064444 C178.932,5.67695556 178.950387,5.72377778 178.950387,5.78111111 C178.950387,5.83557778 178.931032,5.8824 178.892323,5.91966667 C178.853613,5.95788889 178.806194,5.97795556 178.751032,5.97795556 C178.716194,5.97795556 178.686194,5.97126667 178.661032,5.95788889 C178.512,5.88622222 178.329097,5.85086667 178.114258,5.85086667 C177.729097,5.85086667 177.399097,5.98655556 177.125226,6.25697778 C176.851355,6.52548889 176.713935,6.85133333 176.713935,7.23355556 L176.713935,8.81404444 C176.713935,8.86851111 176.694581,8.91533333 176.656839,8.95355556 C176.617161,8.99177778 176.57071,9.01088889 176.514581,9.01088889 C176.458452,9.01088889 176.412,8.99177778 176.37329,8.95355556 C176.335548,8.91533333 176.315226,8.86851111 176.315226,8.81404444 L176.315226,5.65402222 Z" id="Fill-58" fill="#00A3DD"></path>
        </g>
    </g>
</svg>